<svg id="Capa_1" enable-background="new 0 0 512 512" height="512" viewBox="0 0 512 512" width="512" xmlns="http://www.w3.org/2000/svg" xmlns:xlink="http://www.w3.org/1999/xlink"><linearGradient id="SVGID_1_" gradientUnits="userSpaceOnUse" x1="120.373" x2="404.88" y1="393.453" y2="108.947"><stop offset="0" stop-color="#ffdbed"/><stop offset="1" stop-color="#dcfdee"/></linearGradient><g><g><path d="m507.973 225.49c-11.86-49.413-77.96-66.822-117.683-64.764-53.009 2.746-77.026-13.971-65.41-68.016 6.637-30.882 13.319-51.892-34.515-68.18-41.311-14.065-174.561-29.332-202.311 18.234-13.542 23.213 36.303 44.386 12.78 75.75-16.594 22.126-65.768 5.766-92.34 39.917-18.857 24.235-6.975 63.94 42.258 85.004 41.947 17.946 103.652 28.294 114.951 80.037 5.664 25.936-23.241 62.279-8.744 100.454 11.203 29.502 44.939 42.523 89.488-.804 87.902-85.491 69.312 36.572 82.65 61.554 15.28 28.621 68.148 16.908 91.907-7.039 64.961-65.476 104.102-180.762 86.969-252.147z" fill="url(#SVGID_1_)"/></g><g><g><g fill="#2626bc" opacity=".1"><path d="m57.47 118.921v27.421c0 3.314 2.686 6 6 6h59.879c1.943 0 3.766-.941 4.892-2.526l9.738-13.711c1.478-2.081 1.478-4.868 0-6.949l-9.738-13.711c-1.125-1.584-2.948-2.526-4.892-2.526h-59.879c-3.314.002-6 2.688-6 6.002z"/><path d="m201.992 137.631h11.597c2.761 0 5-2.239 5-5s-2.239-5-5-5h-11.597c-2.761 0-5 2.239-5 5s2.239 5 5 5z"/><path d="m239.665 137.631h11.597c2.761 0 5-2.239 5-5s-2.239-5-5-5h-11.597c-2.761 0-5 2.239-5 5s2.238 5 5 5z"/><path d="m277.337 137.631h11.597c2.761 0 5-2.239 5-5s-2.239-5-5-5h-11.597c-2.761 0-5 2.239-5 5s2.239 5 5 5z"/><path d="m315.009 137.631h11.597c2.761 0 5-2.239 5-5s-2.239-5-5-5h-11.597c-2.761 0-5 2.239-5 5s2.239 5 5 5z"/><path d="m352.682 137.631h11.597c2.761 0 5-2.239 5-5s-2.239-5-5-5h-11.597c-2.761 0-5 2.239-5 5s2.238 5 5 5z"/><path d="m164.32 137.631h11.597c2.761 0 5-2.239 5-5s-2.239-5-5-5h-11.597c-2.761 0-5 2.239-5 5s2.239 5 5 5z"/><path d="m58.863 74.056h18.583c2.761 0 5-2.239 5-5s-2.239-5-5-5h-18.583c-2.761 0-5 2.239-5 5s2.239 5 5 5z"/><path d="m58.863 94.438h58.583c2.761 0 5-2.239 5-5s-2.239-5-5-5h-58.583c-2.761 0-5 2.239-5 5s2.239 5 5 5z"/><path d="m470.313 59.595h-48.39c-8.284 0-15 6.716-15 15s6.716 15 15 15h12.177l-91.125 91.125h-122.839c-3.978 0-7.793 1.581-10.606 4.394l-24.98 24.98c-16.376-18.807-40.493-30.696-67.389-30.696-49.332 0-89.323 39.991-89.323 89.323 0 31.535 16.343 59.252 41.02 75.147-.653 1.321-1.03 2.803-1.03 4.377v125.985c0 5.469 4.433 9.902 9.902 9.902h60.149c5.469 0 9.902-4.433 9.902-9.902v-121.574c8.781-3.204 16.917-7.75 24.163-13.385v134.959c0 5.469 4.433 9.902 9.902 9.902h60.149c5.469 0 9.902-4.433 9.902-9.902v-233.986c0-5.469-4.433-9.902-9.902-9.902h-35.267l19.622-19.621h122.838c3.978 0 7.793-1.58 10.606-4.394l20.381-20.381v288.284c0 5.469 4.433 9.902 9.902 9.902h60.149c5.469 0 9.902-4.433 9.902-9.902v-301.986c0-5.469-4.433-9.902-9.902-9.902h-46.447l51.534-51.534v12.177c0 8.284 6.716 15 15 15s15-6.716 15-15v-48.39c0-8.284-6.716-15-15-15z"/><path d="m346.11 270.342h-60.149c-5.469 0-9.902 4.433-9.902 9.902v193.986c0 5.469 4.433 9.902 9.902 9.902h60.149c5.469 0 9.902-4.433 9.902-9.902v-193.986c.001-5.468-4.433-9.902-9.902-9.902z"/></g><g><g><g><path d="m241.995 460.132h-60.149c-5.469 0-9.902-4.433-9.902-9.902v-233.986c0-5.469 4.433-9.902 9.902-9.902h60.149c5.469 0 9.902 4.433 9.902 9.902v233.986c0 5.469-4.433 9.902-9.902 9.902z" fill="#01eca5"/><path d="m206.488 272.237c0 28.69-13.52 54.21-34.54 70.55v-123.02c0-5.22 4.04-9.5 9.17-9.87 15.7 16.09 25.37 38.09 25.37 62.34z" fill="#00d890"/><path d="m201.948 236.337h19.95v193.79h-19.95z" fill="#97ffd2"/><g><path d="m206.488 268.717c0 9.85-1.59 19.33-4.54 28.19v-56.36c2.95 8.86 4.54 18.33 4.54 28.17z" fill="#02ffb3"/></g></g><g><path d="m346.11 460.132h-60.149c-5.469 0-9.902-4.433-9.902-9.902v-193.986c0-5.469 4.433-9.902 9.902-9.902h60.149c5.469 0 9.902 4.433 9.902 9.902v193.986c.001 5.469-4.433 9.902-9.902 9.902z" fill="#01eca5"/><path d="m239.141 343.261h153.79v19.953h-153.79z" fill="#97ffd2" transform="matrix(0 1 -1 0 669.273 37.201)"/></g></g><g><path d="m460.13 148.24v301.99c0 5.47-4.44 9.9-9.9 9.9h-60.15c-5.47 0-9.9-4.43-9.9-9.9v-301.99c0-5.46 4.43-9.9 9.9-9.9h60.15c5.46 0 9.9 4.44 9.9 9.9z" fill="#01eca5"/><g><path d="m427.78 138.34-47.6 47.6v-37.7c0-5.46 4.43-9.9 9.9-9.9z" fill="#00d890"/></g><path d="m289.257 289.261h261.79v19.953h-261.79z" fill="#97ffd2" transform="matrix(0 1 -1 0 719.389 -120.915)"/></g><g><path d="m470.313 35.595h-48.39c-8.284 0-15 6.716-15 15s6.716 15 15 15h12.177l-91.125 91.125h-122.839c-3.978 0-7.793 1.581-10.606 4.394l-73.439 73.438-25.682-25.682c-2.813-2.813-6.628-4.394-10.606-4.394-3.979 0-7.793 1.581-10.606 4.394l-48.541 48.541c-5.857 5.858-5.857 15.355 0 21.213 2.929 2.929 6.768 4.394 10.606 4.394s7.678-1.464 10.606-4.394l37.934-37.934 25.682 25.682c5.857 5.858 15.355 5.858 21.213 0l79.652-79.652h122.838c3.978 0 7.793-1.58 10.606-4.394l95.519-95.519v12.177c0 8.284 6.716 15 15 15s15-6.716 15-15v-48.39c.001-8.283-6.715-14.999-14.999-14.999z" fill="#8399fe"/></g><g><g><g><circle cx="117.161" cy="244.721" fill="#ff7eb8" r="89.323"/><path d="m206.484 244.721c0-.057 0-.114 0-.17-.008-4.303-3.553-7.764-7.856-7.764h-2.088c-8.595 0-10.947-11.823-3.006-15.112l1.929-.799c3.975-1.647 5.926-6.201 4.287-10.179-.022-.053-.043-.105-.065-.158-.022-.052-.044-.105-.065-.157-1.654-3.972-6.254-5.813-10.229-4.167l-1.929.799c-7.941 3.289-14.638-6.734-8.56-12.811l1.469-1.469c3.068-3.068 3.07-8.043.005-11.114-.037-.037-.075-.075-.112-.112-3.07-3.065-8.046-3.063-11.114.005l-1.469 1.469c-6.078 6.078-16.101-.619-12.811-8.56l.795-1.919c1.66-4.008-.242-8.606-4.248-10.27-.049-.02-.098-.041-.147-.061-4.009-1.657-8.606.25-10.266 4.258l-.795 1.919c-3.289 7.941-15.112 5.589-15.112-3.006v-2.088c0-4.303-3.461-7.848-7.764-7.856-.057 0-.114 0-.17 0-.057 0-.114 0-.17 0-4.303.008-7.764 3.553-7.764 7.856v2.088c0 8.595-11.823 10.947-15.112 3.006l-.799-1.929c-1.647-3.975-6.201-5.926-10.179-4.287-.053.022-.105.043-.158.065-.052.022-.105.044-.157.065-3.972 1.654-5.813 6.254-4.167 10.229l.799 1.929c3.289 7.941-6.734 14.638-12.811 8.56l-1.469-1.469c-3.068-3.068-8.043-3.07-11.114-.005-.037.037-.075.075-.112.112-3.065 3.07-3.063 8.046.005 11.114l1.469 1.469c6.078 6.078-.619 16.101-8.56 12.811l-1.919-.795c-4.008-1.66-8.606.242-10.27 4.248-.02.049-.041.098-.061.147-1.657 4.009.25 8.606 4.258 10.266l1.919.795c7.941 3.289 5.589 15.112-3.006 15.112h-2.088c-4.303 0-7.848 3.461-7.856 7.764v.17.17c.009 4.303 3.553 7.764 7.856 7.764h2.088c8.595 0 10.947 11.823 3.006 15.112l-1.929.799c-3.975 1.647-5.926 6.201-4.287 10.18.022.052.043.105.065.157s.044.105.065.157c1.654 3.972 6.254 5.813 10.229 4.167l1.929-.799c7.941-3.289 14.638 6.734 8.56 12.811l-1.469 1.469c-3.068 3.068-3.07 8.043-.005 11.114l.112.112c3.07 3.065 8.046 3.063 11.114-.005l1.469-1.469c6.078-6.078 16.101.619 12.811 8.56l-.795 1.919c-1.66 4.008.242 8.606 4.248 10.27.049.02.098.041.147.061 4.009 1.657 8.606-.25 10.266-4.258l.795-1.919c3.289-7.941 15.112-5.589 15.112 3.006v2.088c0 4.303 3.461 7.848 7.764 7.856h.17.17c4.303-.008 7.764-3.553 7.764-7.856v-2.086c0-8.595 11.823-10.947 15.112-3.006l.799 1.929c1.647 3.975 6.201 5.926 10.18 4.287.052-.022.105-.043.157-.065s.105-.044.157-.065c3.972-1.654 5.813-6.254 4.167-10.229l-.799-1.929c-3.289-7.941 6.734-14.638 12.811-8.56l1.469 1.469c3.068 3.068 8.043 3.07 11.114.005.037-.037.075-.075.112-.112 3.065-3.07 3.063-8.046-.005-11.114l-1.469-1.469c-6.078-6.078.619-16.101 8.56-12.811l1.919.795c4.008 1.66 8.606-.242 10.27-4.248.02-.049.041-.098.061-.147 1.657-4.009-.25-8.606-4.258-10.266l-1.919-.795c-7.941-3.289-5.589-15.112 3.006-15.112h2.088c4.303 0 7.848-3.461 7.856-7.764 0-.058 0-.115 0-.172z" fill="#ffa8cf"/><circle cx="117.161" cy="244.721" fill="#ff5ba8" r="67.001"/><path d="m138.601 244.721c3.956-3.743 6.432-9.036 6.432-14.899 0-10.272-7.587-18.804-17.451-20.29v-1.099c0-3.104-2.517-5.621-5.621-5.621s-5.621 2.517-5.621 5.621v.869h-7.233v-.869c0-3.104-2.517-5.621-5.621-5.621s-5.621 2.517-5.621 5.621v.869h-2.955c-3.104 0-5.621 2.517-5.621 5.621s2.517 5.621 5.621 5.621h2.954v48.354h-2.954c-3.104 0-5.621 2.517-5.621 5.621s2.517 5.621 5.621 5.621h2.954v.868c0 3.104 2.517 5.621 5.621 5.621s5.621-2.517 5.621-5.621v-.868h7.233v.868c0 3.104 2.517 5.621 5.621 5.621s5.621-2.517 5.621-5.621v-1.099c9.864-1.486 17.451-10.018 17.451-20.29.001-5.862-2.475-11.155-6.431-14.898zm-14.089-24.176c5.116 0 9.278 4.162 9.278 9.278s-4.162 9.278-9.278 9.278h-15.406v-18.556zm0 48.353h-15.406v-18.556h15.406c5.116 0 9.278 4.162 9.278 9.278s-4.162 9.278-9.278 9.278z" fill="#fff"/></g><g><path d="m137.879 460.132h-60.149c-5.469 0-9.902-4.433-9.902-9.902v-125.986c0-5.469 4.433-9.902 9.902-9.902h60.149c5.469 0 9.902 4.433 9.902 9.902v125.986c0 5.469-4.433 9.902-9.902 9.902z" fill="#01eca5"/><path d="m64.91 377.261h85.79v19.953h-85.79z" fill="#97ffd2" transform="matrix(0 1 -1 0 495.042 279.432)"/></g></g></g><g><path d="m123.348 88.921h-59.878c-3.314 0-6 2.686-6 6v27.421c0 3.314 2.686 6 6 6h59.879c1.943 0 3.766-.941 4.892-2.526l9.738-13.711c1.478-2.081 1.478-4.868 0-6.949l-9.738-13.711c-1.126-1.583-2.949-2.524-4.893-2.524z" fill="#01eca5"/><g fill="#2626bc"><path d="m346.11 241.342h-60.148c-8.217 0-14.902 6.685-14.902 14.902v193.986c0 8.217 6.685 14.902 14.902 14.902h60.148c8.217 0 14.902-6.685 14.902-14.902v-193.986c.001-8.217-6.684-14.902-14.902-14.902zm4.903 208.888c0 2.703-2.199 4.902-4.902 4.902h-60.148c-2.703 0-4.902-2.199-4.902-4.902v-193.986c0-2.703 2.199-4.902 4.902-4.902h60.148c2.703 0 4.902 2.199 4.902 4.902z"/><path d="m470.31 30.6h-48.39c-11.028 0-20 8.972-20 20s8.972 20 20 20h.109l-20.575 20.574c-1.953 1.953-1.953 5.119 0 7.071s5.118 1.952 7.071 0l29.11-29.11c1.43-1.43 1.857-3.581 1.084-5.449-.774-1.868-2.597-3.086-4.62-3.086h-12.18c-5.514 0-10-4.486-10-10s4.486-10 10-10h48.39c5.514 0 10 4.486 10 10v48.39c0 5.514-4.486 10-10 10s-10-4.486-10-10v-12.18c0-2.022-1.218-3.846-3.086-4.619-1.869-.774-4.019-.347-5.449 1.083l-95.52 95.52c-1.887 1.887-4.396 2.926-7.064 2.926h-122.84c-1.326 0-2.598.527-3.536 1.464l-20.66 20.659c-2.998-6.208-6.657-12.04-10.884-17.404l21.795-21.795c1.859-1.859 4.438-2.925 7.075-2.925h122.83c1.326 0 2.598-.527 3.536-1.464l41.44-41.44c1.953-1.953 1.953-5.119 0-7.071s-5.118-1.952-7.071 0l-39.976 39.976h-120.759c-5.27 0-10.425 2.134-14.146 5.854l-21.337 21.337c-17.141-17.577-41.065-28.511-67.497-28.511-52.008 0-94.32 42.312-94.32 94.32 0 30.959 14.955 59.548 40.184 77.23-.117.75-.195 1.512-.195 2.294v125.986c0 8.217 6.685 14.902 14.902 14.902h60.148c8.217 0 14.902-6.685 14.902-14.902v-118.157c35.252-14.391 58.699-49.053 58.699-87.354 0-10.806-1.832-21.19-5.192-30.866l2.607-2.607c.309.06.626.096.951.096h32.148c2.703 0 4.902 2.199 4.902 4.902v233.986c0 2.703-2.199 4.902-4.902 4.902h-60.148c-2.703 0-4.902-2.199-4.902-4.902v-104.21c0-2.761-2.239-5-5-5s-5 2.239-5 5v104.21c0 8.217 6.685 14.902 14.902 14.902h60.148c8.217 0 14.902-6.685 14.902-14.902v-233.986c0-8.217-6.685-14.902-14.902-14.902h-23.196l9.622-9.622h120.77c5.34 0 10.36-2.079 14.136-5.854l11.854-11.854v276.218c0 8.216 6.684 14.9 14.9 14.9h60.15c8.216 0 14.9-6.684 14.9-14.9v-301.99c0-8.216-6.684-14.9-14.9-14.9h-34.378l34.458-34.458v.109c0 11.028 8.972 20 20 20s20-8.972 20-20v-48.391c0-11.028-8.972-20-20-20zm-327.529 419.63c0 2.703-2.199 4.902-4.902 4.902h-60.149c-2.703 0-4.902-2.199-4.902-4.902v-125.986c0-2.703 2.199-4.902 4.902-4.902h60.148c2.703 0 4.902 2.199 4.902 4.902v125.986zm9.705-128.934c-1.372-6.809-7.399-11.954-14.607-11.954h-60.149c-3.79 0-7.243 1.434-9.876 3.773-22.003-15.855-35.014-41.095-35.014-68.395 0-46.494 37.826-84.32 84.32-84.32s84.32 37.826 84.32 84.32c0 32.963-19.427 62.909-48.994 76.576zm297.744-177.956c2.702 0 4.9 2.198 4.9 4.9v301.99c0 2.702-2.198 4.9-4.9 4.9h-60.15c-2.702 0-4.9-2.198-4.9-4.9v-286.219l20.671-20.671z"/><path d="m63.47 133.342h59.878c3.556 0 6.909-1.731 8.968-4.63l9.739-13.711c2.706-3.81 2.706-8.929 0-12.739l-9.739-13.711c-2.059-2.899-5.412-4.63-8.968-4.63h-59.878c-6.065 0-11 4.935-11 11v27.421c0 6.066 4.934 11 11 11zm-1-38.421c0-.551.449-1 1-1h59.878c.324 0 .628.157.816.421l9.738 13.71c.246.347.246.812 0 1.158l-9.738 13.71c-.188.264-.493.421-.816.421h-59.878c-.551 0-1-.449-1-1z"/><path d="m201.992 113.631h11.597c2.761 0 5-2.239 5-5s-2.239-5-5-5h-11.597c-2.761 0-5 2.239-5 5s2.239 5 5 5z"/><path d="m239.665 113.631h11.597c2.761 0 5-2.239 5-5s-2.239-5-5-5h-11.597c-2.761 0-5 2.239-5 5s2.238 5 5 5z"/><path d="m277.337 113.631h11.597c2.761 0 5-2.239 5-5s-2.239-5-5-5h-11.597c-2.761 0-5 2.239-5 5s2.239 5 5 5z"/><path d="m315.009 113.631h11.597c2.761 0 5-2.239 5-5s-2.239-5-5-5h-11.597c-2.761 0-5 2.239-5 5s2.239 5 5 5z"/><path d="m352.682 113.631h11.597c2.761 0 5-2.239 5-5s-2.239-5-5-5h-11.597c-2.761 0-5 2.239-5 5s2.238 5 5 5z"/><path d="m164.32 113.631h11.597c2.761 0 5-2.239 5-5s-2.239-5-5-5h-11.597c-2.761 0-5 2.239-5 5s2.239 5 5 5z"/><path d="m58.863 50.056h18.583c2.761 0 5-2.239 5-5s-2.239-5-5-5h-18.583c-2.761 0-5 2.239-5 5s2.239 5 5 5z"/><path d="m58.863 70.438h58.583c2.761 0 5-2.239 5-5s-2.239-5-5-5h-58.583c-2.761 0-5 2.239-5 5s2.239 5 5 5z"/></g></g></g></g><g><path d="m310.56 77.931c-1.28 0-2.559-.488-3.536-1.464l-4.964-4.964-4.964 4.964c-1.953 1.952-5.118 1.952-7.071 0-1.953-1.953-1.953-5.119 0-7.071l8.5-8.5c1.953-1.952 5.118-1.952 7.071 0l8.5 8.5c1.953 1.953 1.953 5.119 0 7.071-.977.975-2.257 1.464-3.536 1.464z" fill="#00d890"/></g><g><path d="m480.717 493.382c-1.28 0-2.559-.488-3.536-1.464l-4.964-4.964-4.964 4.964c-1.953 1.953-5.118 1.952-7.071 0-1.953-1.953-1.953-5.119 0-7.071l8.5-8.5c1.953-1.952 5.118-1.952 7.071 0l8.5 8.5c1.953 1.953 1.953 5.118 0 7.071-.977.976-2.256 1.464-3.536 1.464z" fill="#ff7eb8"/></g><g><path d="m314.56 228.402c-1.28 0-2.559-.488-3.536-1.464l-4.964-4.964-4.964 4.964c-1.953 1.952-5.118 1.952-7.071 0-1.953-1.953-1.953-5.119 0-7.071l8.5-8.5c1.953-1.952 5.118-1.952 7.071 0l8.5 8.5c1.953 1.953 1.953 5.119 0 7.071-.977.976-2.257 1.464-3.536 1.464z" fill="#6583fe"/></g><g><g><g><path d="m343.606 52.533c-.851 0-1.712-.217-2.501-.674l-.099-.057c-2.39-1.384-3.205-4.443-1.821-6.833s4.442-3.205 6.833-1.821l.099.057c2.39 1.384 3.205 4.443 1.821 6.833-.927 1.6-2.606 2.495-4.332 2.495z" fill="#ff7eb8"/></g><g><path d="m368.508 66.909c-.844 0-1.7-.214-2.485-.665l-.099-.057c-2.395-1.375-3.221-4.431-1.846-6.826 1.375-2.394 4.432-3.221 6.826-1.846l.099.057c2.395 1.375 3.221 4.431 1.846 6.826-.925 1.61-2.609 2.511-4.341 2.511z" fill="#ff7eb8"/></g></g><g><g><path d="m343.606 52.533c-.851 0-1.712-.217-2.501-.674l-.099-.057c-2.39-1.384-3.205-4.443-1.821-6.833s4.442-3.205 6.833-1.821l.099.057c2.39 1.384 3.205 4.443 1.821 6.833-.927 1.6-2.606 2.495-4.332 2.495z" fill="#ff7eb8"/></g><g><path d="m368.508 66.909c-.844 0-1.7-.214-2.485-.665l-.099-.057c-2.395-1.375-3.221-4.431-1.846-6.826 1.375-2.394 4.432-3.221 6.826-1.846l.099.057c2.395 1.375 3.221 4.431 1.846 6.826-.925 1.61-2.609 2.511-4.341 2.511z" fill="#ff7eb8"/></g></g><g><g><path d="m368.419 52.533c-1.726 0-3.404-.895-4.332-2.495-1.384-2.389-.569-5.448 1.821-6.833l.099-.057c2.391-1.384 5.448-.568 6.833 1.821 1.384 2.389.569 5.448-1.821 6.833l-.099.057c-.789.456-1.651.674-2.501.674z" fill="#ff7eb8"/></g><g><path d="m343.518 66.909c-1.732 0-3.417-.901-4.341-2.511-1.375-2.395-.549-5.451 1.846-6.826l.099-.057c2.395-1.375 5.451-.549 6.826 1.846s.549 5.451-1.846 6.826l-.099.057c-.785.451-1.641.665-2.485.665z" fill="#ff7eb8"/></g></g><g><g><path d="m368.419 52.533c-1.726 0-3.404-.895-4.332-2.495-1.384-2.389-.569-5.448 1.821-6.833l.099-.057c2.391-1.384 5.448-.568 6.833 1.821 1.384 2.389.569 5.448-1.821 6.833l-.099.057c-.789.456-1.651.674-2.501.674z" fill="#ff7eb8"/></g><g><path d="m343.518 66.909c-1.732 0-3.417-.901-4.341-2.511-1.375-2.395-.549-5.451 1.846-6.826l.099-.057c2.395-1.375 5.451-.549 6.826 1.846s.549 5.451-1.846 6.826l-.099.057c-.785.451-1.641.665-2.485.665z" fill="#ff7eb8"/></g></g><g><g><path d="m356.013 45.372c-2.761 0-5-2.239-5-5v-.114c0-2.761 2.239-5 5-5s5 2.239 5 5v.114c0 2.761-2.239 5-5 5z" fill="#ff7eb8"/></g><g><path d="m356.013 74.125c-2.761 0-5-2.239-5-5v-.114c0-2.761 2.239-5 5-5s5 2.239 5 5v.114c0 2.761-2.239 5-5 5z" fill="#ff7eb8"/></g></g></g></g><g><path d="m43.721 381.965c-1.28 0-2.559-.488-3.536-1.464l-4.964-4.964-4.964 4.964c-1.953 1.952-5.118 1.952-7.071 0-1.953-1.953-1.953-5.119 0-7.071l8.5-8.5c1.953-1.952 5.118-1.952 7.071 0l8.5 8.5c1.953 1.953 1.953 5.119 0 7.071-.977.976-2.257 1.464-3.536 1.464z" fill="#00d890"/></g></g></svg>