<svg xmlns="http://www.w3.org/2000/svg" xmlns:xlink="http://www.w3.org/1999/xlink" viewBox="0 0 395.23 232.58"><defs><style>.cls-1{fill:none;}.cls-2{fill:#e6ebf0;}.cls-3{clip-path:url(#clip-path);}.cls-4{fill:#c6d0db;}.cls-12,.cls-5{fill:#aab6c2;}.cls-6,.cls-7,.cls-8,.cls-9{fill:#fff;}.cls-6{opacity:0.35;}.cls-12,.cls-7{opacity:0.5;}.cls-8{opacity:0.6;}.cls-10,.cls-15{fill:#ff822e;}.cls-11{clip-path:url(#clip-path-2);}.cls-13{fill:#fa8921;}.cls-14,.cls-15{fill-rule:evenodd;}</style><clipPath id="clip-path" transform="translate(37.45 1.25)"><path class="cls-1" d="M198.26,81.69C174,74.33,153.11,63.93,129.43,35.06S42.1,15.08,23.6,58.38s-5.18,83.25,17,90.65,31.73,14.65,44,43.05c9.83,22.78,64.5,33.75,81.44,11.78,31-40.18,31.84-24.48,46.64-54.46S223.16,89.25,198.26,81.69Z"/></clipPath><clipPath id="clip-path-2" transform="translate(37.45 1.25)"><path class="cls-1" d="M31.13,56.78l-.32,81.95a3.88,3.88,0,0,0,3.88,3.88l125.71,0a3.89,3.89,0,0,0,3.88-3.89l.32-81.94a5,5,0,0,0-4.95-5l-123.56,0A5,5,0,0,0,31.13,56.78Z"/></clipPath></defs><g id="Слой_2" data-name="Слой 2"><g id="Layer_1" data-name="Layer 1"><path class="cls-2" d="M198.26,81.69C174,74.33,153.11,63.93,129.43,35.06S42.1,15.08,23.6,58.38s-5.18,83.25,17,90.65,31.73,14.65,44,43.05c9.83,22.78,64.5,33.75,81.44,11.78,31-40.18,31.84-24.48,46.64-54.46S223.16,89.25,198.26,81.69Z" transform="translate(37.45 1.25)"/><path class="cls-2" d="M183.33,40.12c-16.48-18.62-22.71-24.18-40.92-20.25s11.38,35.52,41.54,51S203.49,62.9,183.33,40.12Z" transform="translate(37.45 1.25)"/><rect x="57.87" y="217.06" width="195.21" height="1.44"/><g class="cls-3"><polygon class="cls-4" points="82.08 77.21 82.08 69.46 94.94 69.46 94.94 32.4 98.49 32.4 98.49 69.46 112.34 69.46 112.34 77.21 119.76 77.21 119.76 232.58 66.25 232.58 66.25 77.21 82.08 77.21"/><rect class="cls-5" x="66.25" y="77.21" width="7.42" height="139.76"/><rect class="cls-4" x="93" y="114.22" width="53.51" height="118.36"/><rect class="cls-5" x="93" y="114.22" width="7.42" height="118.36"/><rect class="cls-5" x="131.37" y="119.26" width="7.68" height="3.19"/><rect class="cls-5" x="118.44" y="119.26" width="7.68" height="3.19"/><rect class="cls-5" x="131.37" y="130.86" width="7.68" height="3.19"/><rect class="cls-5" x="118.44" y="130.86" width="7.68" height="3.19"/><rect class="cls-5" x="105.51" y="130.86" width="7.68" height="3.19"/><rect class="cls-5" x="131.37" y="142.47" width="7.68" height="3.19"/><rect class="cls-5" x="105.51" y="142.47" width="7.68" height="3.19"/><rect class="cls-5" x="118.44" y="148.27" width="7.68" height="3.19"/><rect class="cls-5" x="131.37" y="154.07" width="7.68" height="3.19"/><rect class="cls-5" x="118.44" y="159.87" width="7.68" height="3.19"/><rect class="cls-5" x="131.37" y="165.67" width="7.68" height="3.19"/><rect class="cls-5" x="105.51" y="165.67" width="7.68" height="3.19"/><rect class="cls-5" x="131.37" y="176.4" width="7.68" height="3.19"/><rect class="cls-5" x="118.44" y="176.4" width="7.68" height="3.19"/><rect class="cls-5" x="131.37" y="188" width="7.68" height="3.19"/><rect class="cls-5" x="118.44" y="188" width="7.68" height="3.19"/><rect class="cls-5" x="105.51" y="188" width="7.68" height="3.19"/><rect class="cls-5" x="131.37" y="199.6" width="7.68" height="3.19"/><rect class="cls-5" x="105.51" y="199.6" width="7.68" height="3.19"/><rect class="cls-5" x="118.44" y="205.4" width="7.68" height="3.19"/><rect class="cls-5" x="105.51" y="205.4" width="7.68" height="3.19"/><rect class="cls-5" x="131.37" y="211.2" width="7.68" height="3.19"/><rect class="cls-5" x="118.44" y="217" width="7.68" height="3.19"/><rect class="cls-5" x="131.37" y="222.81" width="7.68" height="3.19"/><rect class="cls-5" x="105.51" y="222.81" width="7.68" height="3.19"/><rect class="cls-4" x="221.03" y="114.22" width="53.51" height="118.36"/><rect class="cls-5" x="221.03" y="114.22" width="7.42" height="118.36"/><rect class="cls-4" x="145.02" y="57.92" width="71.79" height="174.66"/><rect class="cls-5" x="145.02" y="57.92" width="7.42" height="174.66"/><rect class="cls-5" x="198.04" y="66.29" width="11.21" height="4.65"/><rect class="cls-5" x="179.16" y="66.29" width="11.21" height="4.65"/><rect class="cls-5" x="198.04" y="83.23" width="11.21" height="4.65"/><rect class="cls-5" x="179.16" y="83.23" width="11.21" height="4.65"/><rect class="cls-5" x="160.28" y="83.23" width="11.21" height="4.65"/><rect class="cls-5" x="198.04" y="100.17" width="11.21" height="4.65"/><rect class="cls-5" x="160.28" y="100.17" width="11.21" height="4.65"/><rect class="cls-5" x="179.16" y="108.65" width="11.21" height="4.65"/><rect class="cls-5" x="198.04" y="117.12" width="11.21" height="4.65"/><rect class="cls-5" x="179.16" y="125.59" width="11.21" height="4.65"/><rect class="cls-5" x="198.04" y="134.06" width="11.21" height="4.65"/><rect class="cls-5" x="160.28" y="134.06" width="11.21" height="4.65"/><rect class="cls-5" x="198.04" y="149.72" width="11.21" height="4.65"/><rect class="cls-5" x="179.16" y="149.72" width="11.21" height="4.65"/><rect class="cls-5" x="198.04" y="166.66" width="11.21" height="4.65"/><rect class="cls-5" x="179.16" y="166.66" width="11.21" height="4.65"/><rect class="cls-5" x="160.28" y="166.66" width="11.21" height="4.65"/><rect class="cls-5" x="198.04" y="183.61" width="11.21" height="4.65"/><rect class="cls-5" x="160.28" y="183.61" width="11.21" height="4.65"/><rect class="cls-5" x="179.16" y="192.08" width="11.21" height="4.65"/><rect class="cls-5" x="160.28" y="192.08" width="11.21" height="4.65"/><rect class="cls-5" x="198.04" y="200.55" width="11.21" height="4.65"/><rect class="cls-5" x="179.16" y="209.02" width="11.21" height="4.65"/><rect class="cls-5" x="198.04" y="217.49" width="11.21" height="4.65"/><rect class="cls-5" x="160.28" y="217.49" width="11.21" height="4.65"/><rect class="cls-4" x="257.89" y="70.94" width="70.36" height="161.64"/><rect class="cls-5" x="257.89" y="70.94" width="7.27" height="161.64"/><rect class="cls-5" x="309.86" y="78.68" width="10.99" height="4.31"/><rect class="cls-5" x="291.35" y="78.68" width="10.99" height="4.31"/><rect class="cls-5" x="309.86" y="94.36" width="10.99" height="4.31"/><rect class="cls-5" x="291.35" y="94.36" width="10.99" height="4.31"/><rect class="cls-5" x="272.85" y="94.36" width="10.99" height="4.31"/><rect class="cls-5" x="309.86" y="110.04" width="10.99" height="4.31"/><rect class="cls-5" x="272.85" y="110.04" width="10.99" height="4.31"/><rect class="cls-5" x="291.35" y="117.88" width="10.99" height="4.31"/><rect class="cls-5" x="309.86" y="125.72" width="10.99" height="4.31"/><rect class="cls-5" x="291.35" y="133.56" width="10.99" height="4.31"/><rect class="cls-5" x="309.86" y="141.41" width="10.99" height="4.31"/><rect class="cls-5" x="272.85" y="141.41" width="10.99" height="4.31"/><rect class="cls-5" x="309.86" y="155.9" width="10.99" height="4.31"/><rect class="cls-5" x="291.35" y="155.9" width="10.99" height="4.31"/><rect class="cls-5" x="309.86" y="171.58" width="10.99" height="4.31"/><rect class="cls-5" x="291.35" y="171.58" width="10.99" height="4.31"/><rect class="cls-5" x="272.85" y="171.58" width="10.99" height="4.31"/><rect class="cls-5" x="309.86" y="187.26" width="10.99" height="4.31"/><rect class="cls-5" x="272.85" y="187.26" width="10.99" height="4.31"/><rect class="cls-5" x="291.35" y="195.1" width="10.99" height="4.31"/><rect class="cls-5" x="272.85" y="195.1" width="10.99" height="4.31"/><rect class="cls-5" x="309.86" y="202.94" width="10.99" height="4.31"/><rect class="cls-5" x="291.35" y="210.78" width="10.99" height="4.31"/><rect class="cls-5" x="309.86" y="218.62" width="10.99" height="4.31"/><rect class="cls-5" x="272.85" y="218.62" width="10.99" height="4.31"/><rect class="cls-4" x="30.5" y="122.33" width="45.32" height="110.25"/><rect class="cls-5" x="30.5" y="122.33" width="4.68" height="110.25"/><rect class="cls-5" x="63.96" y="127.61" width="7.08" height="2.94"/><rect class="cls-5" x="52.05" y="127.61" width="7.08" height="2.94"/><rect class="cls-5" x="63.96" y="138.3" width="7.08" height="2.94"/><rect class="cls-5" x="52.05" y="138.3" width="7.08" height="2.94"/><rect class="cls-5" x="40.13" y="138.3" width="7.08" height="2.94"/><rect class="cls-5" x="63.96" y="149" width="7.08" height="2.94"/><rect class="cls-5" x="40.13" y="149" width="7.08" height="2.94"/><rect class="cls-5" x="52.05" y="154.35" width="7.08" height="2.94"/><rect class="cls-5" x="63.96" y="159.7" width="7.08" height="2.94"/><rect class="cls-5" x="52.05" y="165.04" width="7.08" height="2.94"/><rect class="cls-5" x="63.96" y="170.39" width="7.08" height="2.94"/><rect class="cls-5" x="40.13" y="170.39" width="7.08" height="2.94"/><rect class="cls-5" x="63.96" y="180.27" width="7.08" height="2.94"/><rect class="cls-5" x="52.05" y="180.27" width="7.08" height="2.94"/><rect class="cls-5" x="63.96" y="190.97" width="7.08" height="2.94"/><rect class="cls-5" x="52.05" y="190.97" width="7.08" height="2.94"/><rect class="cls-5" x="40.13" y="190.97" width="7.08" height="2.94"/><rect class="cls-5" x="63.96" y="201.67" width="7.08" height="2.94"/><rect class="cls-5" x="40.13" y="201.67" width="7.08" height="2.94"/><rect class="cls-5" x="52.05" y="207.01" width="7.08" height="2.94"/><rect class="cls-5" x="40.13" y="207.01" width="7.08" height="2.94"/><rect class="cls-5" x="63.96" y="212.36" width="7.08" height="2.94"/><rect class="cls-5" x="52.05" y="217.71" width="7.08" height="2.94"/><rect class="cls-5" x="63.96" y="223.06" width="7.08" height="2.94"/><rect class="cls-5" x="40.13" y="223.06" width="7.08" height="2.94"/><rect class="cls-6" x="2.1" y="4.33" width="192.05" height="218.97"/><polygon class="cls-7" points="68.22 219.35 53.31 219.35 133.22 6.84 148.12 6.84 68.22 219.35"/><polygon class="cls-7" points="41.9 219.35 34.45 219.35 114.35 6.84 121.81 6.84 41.9 219.35"/><polygon class="cls-7" points="130.89 219.35 123.44 219.35 191.94 29.66 191.94 44.94 130.89 219.35"/><rect class="cls-6" x="195.16" width="192.05" height="218.97"/><polygon class="cls-7" points="226.93 219.35 212.02 219.35 291.93 6.84 306.83 6.84 226.93 219.35"/><polygon class="cls-7" points="200.61 219.35 193.16 219.35 273.06 6.84 280.51 6.84 200.61 219.35"/><polygon class="cls-8" points="322.96 219.35 315.51 219.35 384.01 29.66 384.01 44.94 322.96 219.35"/><path class="cls-9" d="M357.78,42.59V40.08h-6.9V.58H-37.45v5h4.18V7.36H90.59V40.08h-128v2.51h128v64.3h-128v2.51h128v64.3h-128v2.51h128v41.9H-33.23v1.45h-4.22v5.79H350.88v-.46h0V176.21h6.9V173.7h-6.9V109.4h6.9v-2.51h-6.9V42.59Zm-199,66.81h59.82v64.3H158.82Zm0-2.51V42.59h59.82v64.3Zm0-66.81V7.36h59.82V40.08Zm0,136.13h59.82v41.9h-59.8v1.45h0Zm64,41.9v-41.9h59.82v41.9Zm0-44.41V109.4h59.82v64.3Zm0-66.81V42.59h59.82v64.3Zm0-66.81V7.36h59.82V40.08Zm64-32.72h59.81V40.08H286.86Zm-192.07,0H154.6V40.08H94.79Zm0,35.23H154.6v64.3H94.79Zm0,66.81H154.6v64.3H94.79Zm0,66.81H154.6v43.35h0v-1.45H94.79Zm251.88,43.35h0v-1.45H286.86v-41.9h59.81Zm0-45.86H286.86V109.4h59.81Zm0-66.81H286.86V42.59h59.81Z" transform="translate(37.45 1.25)"/></g><path class="cls-5" d="M73.27,158.18a3.21,3.21,0,0,0,1.83-.61,15.87,15.87,0,0,1-.27,3.37c-.72,1.16-2.72,3.3-2.58,3.28a6.21,6.21,0,0,0,1.6-.37,12,12,0,0,1-1.22,2c-1,1.29-2.35,2.33-2.88,3.9a.09.09,0,0,1-.06.07.12.12,0,0,1-.19.09c-2.6-2.48-3.07-6.24-3.45-9.63,0-.16,0-.32,0-.48a10.4,10.4,0,0,0,2.4,1.87c.13.07-1.63-2.74-2.49-4a7.76,7.76,0,0,1,.44-2.41A20.21,20.21,0,0,1,69,150.65a1.09,1.09,0,0,1,.13-.17,7.6,7.6,0,0,0,1.12,2,25.74,25.74,0,0,0-.35-3c.25-.32.51-.63.77-.94s.78-1.1,1.4-1,2,2.57,2.17,3.28c.07.3.14.61.2.92,0,.13,0,.27.08.4a37.48,37.48,0,0,1,.46,3.78l-.13.2A25.1,25.1,0,0,0,73.27,158.18Z" transform="translate(37.45 1.25)"/><path d="M70.89,156.93a6.48,6.48,0,0,0,3.22-1.85c.14-.12,0-.36-.18-.23a6.26,6.26,0,0,1-3,1.77q.42-2.87,1-5.72c0-.19-.25-.23-.29-.05-.5,2.52-.9,5.05-1.22,7.6a12.63,12.63,0,0,1-1.7-3.43c-.06-.18-.33-.07-.27.11a12.7,12.7,0,0,0,1.82,3.62.14.14,0,0,0,.11.06c-.07.55-.13,1.11-.19,1.67a7.87,7.87,0,0,1-1.26-2.22c-.07-.17-.34-.06-.28.12a8.41,8.41,0,0,0,1.44,2.45l.06,0c-.19,1.83-.33,3.67-.43,5.51a.14.14,0,0,0,0,.07c0,.67-.06,1.35-.07,2l0,1.32a.13.13,0,0,0,0,.1,64.7,64.7,0,0,0,1.56,12.31l.29-.06a61.2,61.2,0,0,1-1.56-13.95c0-.49,0-1,.07-1.48a.16.16,0,0,0,.13,0,4.93,4.93,0,0,0,1.35-1.38c.1-.16-.13-.34-.24-.18A4.68,4.68,0,0,1,70,166.41c.17-3.17.47-6.34.91-9.48Z" transform="translate(37.45 1.25)"/><path class="cls-5" d="M60.66,165.46a3.11,3.11,0,0,1-1.73.14,11.17,11.17,0,0,0,1.21,2.45c1,.63,3.27,1.58,3.15,1.61a6.29,6.29,0,0,1-1.47.25,9.06,9.06,0,0,0,1.62,1.1c1.2.65,2.67,1,3.58,2a.09.09,0,0,0,.07,0,.1.1,0,0,0,.18,0c1.5-2.72.8-5.7.14-8.37l-.09-.38a9.74,9.74,0,0,1-1.5,2.2c-.09.09.59-2.6,1-3.86A5.75,5.75,0,0,0,65.68,161a15.5,15.5,0,0,0-3.6-2.55l-.16-.09a5.91,5.91,0,0,1-.36,1.89,17.06,17.06,0,0,1-.59-2.4c-.31-.15-.61-.31-.93-.45s-1-.58-1.48-.3-1,2.58-.89,3.17c0,.25.06.51.1.76s0,.22,0,.33a25,25,0,0,0,.7,3l.17.11A21.53,21.53,0,0,1,60.66,165.46Z" transform="translate(37.45 1.25)"/><path d="M69.44,182.82a46.22,46.22,0,0,0-2.25-9.77.1.1,0,0,0,0-.09c-.13-.33-.27-.65-.41-1-.2-.5-.42-1-.65-1.5l0,0c-.62-1.35-1.27-2.68-2-4a.1.1,0,0,0,0-.05,6.34,6.34,0,0,0,.51-2.32c0-.15-.26-.14-.26,0a6.05,6.05,0,0,1-.44,2.08c-.21-.4-.42-.8-.64-1.19a.14.14,0,0,0,.07-.08,10,10,0,0,0,.51-3.32c0-.15-.27-.15-.27,0a9.92,9.92,0,0,1-.45,3.13Q61.68,162,60,159.4c-.08-.12-.32,0-.23.13q1.31,2,2.49,4a6,6,0,0,1-3.08-.35.13.13,0,0,0-.08.24,6.14,6.14,0,0,0,3.27.33h0q1.94,3.33,3.53,6.83a4.1,4.1,0,0,1-1.42-.56c-.13-.09-.28.13-.14.21a4.13,4.13,0,0,0,1.54.6.21.21,0,0,0,.12,0c.16.36.33.73.48,1.09a43.17,43.17,0,0,1,2.73,11Z" transform="translate(37.45 1.25)"/><path d="M60.06,161.89a6.77,6.77,0,0,1-2.29-.9c0,.11,0,.22,0,.33a6.77,6.77,0,0,0,2.15.8C60.14,162.15,60.22,161.92,60.06,161.89Z" transform="translate(37.45 1.25)"/><path class="cls-5" d="M84.93,164.1c0,1.06-2.47,1.57-3.25,1.86A11.23,11.23,0,0,0,77,168.63,55.86,55.86,0,0,0,72.9,174a.3.3,0,0,1-.3.13,4.69,4.69,0,0,1-.36-.78,10.43,10.43,0,0,1-1-4.26,6.83,6.83,0,0,1,.78-2.29,2,2,0,0,0,.49,1,20.66,20.66,0,0,0,.28-2.13l.35-.41a8,8,0,0,1,.91-.83l.21-.16a9,9,0,0,1,.82-.55l.24-.13a7.84,7.84,0,0,1,.82-.41,5.48,5.48,0,0,0,.46,1.51,11,11,0,0,0,.18-1.77c.26-.1.53-.18.81-.26a4.22,4.22,0,0,0,.34,1,5,5,0,0,0,.53-1.19,10.7,10.7,0,0,1,2.63-.21l.22,0a5.35,5.35,0,0,1,.7.08c.85.13,2.84.66,2.88,1.8Z" transform="translate(37.45 1.25)"/><path d="M75.49,166.89c-2.09,2.05-2.73,5.83-2.87,6.91a5,5,0,0,0-.43,1.39,32.24,32.24,0,0,0-.13,5.2c0,.56,0,1.12.07,1.68l.29,0c0-.36,0-.71,0-1.07-.05-1.53-.05-3.06,0-4.59a6.8,6.8,0,0,1,.42-2.32.32.32,0,0,0,.09-.08,55.86,55.86,0,0,1,4.1-5.33A11.23,11.23,0,0,1,81.68,166c.78-.29,3.23-.8,3.25-1.86C81.66,164.48,77.89,164.52,75.49,166.89Z" transform="translate(37.45 1.25)"/><path d="M75.4,165.88a6.74,6.74,0,0,1,0-2.37l-.24.13a7,7,0,0,0,.07,2.28A.11.11,0,0,0,75.4,165.88Z" transform="translate(37.45 1.25)"/><path d="M74.6,166.3a9.5,9.5,0,0,1-.3-2.11l-.21.16a9.67,9.67,0,0,0,.3,2C74.43,166.48,74.64,166.43,74.6,166.3Z" transform="translate(37.45 1.25)"/><path class="cls-9" d="M66,186.51A7.6,7.6,0,0,1,63.1,182a7.62,7.62,0,0,1,0-3.2,7.24,7.24,0,0,1,.37-1.2H77.38a7,7,0,0,1,.37,1.2,7.45,7.45,0,0,1-2.88,7.67Z" transform="translate(37.45 1.25)"/><path d="M77.27,177.8a6.33,6.33,0,0,1,.33,1.07,7.13,7.13,0,0,1,0,3.14,7.33,7.33,0,0,1-2.79,4.35H66.05A7.33,7.33,0,0,1,63.26,182a7.55,7.55,0,0,1,0-3.14,6.94,6.94,0,0,1,.33-1.07Zm.21-.32H63.39A7.51,7.51,0,0,0,63,178.8a7.7,7.7,0,0,0-.19,1.67,7.78,7.78,0,0,0,.17,1.61,7.62,7.62,0,0,0,3,4.59h9a7.62,7.62,0,0,0,3-4.59,7.78,7.78,0,0,0,.17-1.61,7.7,7.7,0,0,0-.18-1.67,7.54,7.54,0,0,0-.43-1.32Z" transform="translate(37.45 1.25)"/><path d="M78.09,180.47a7.78,7.78,0,0,1-.17,1.61,7.62,7.62,0,0,1-3,4.59H66c11.73.58,11.53-9.19,11.53-9.19a7.54,7.54,0,0,1,.43,1.32A7.7,7.7,0,0,1,78.09,180.47Z" transform="translate(37.45 1.25)"/><path class="cls-9" d="M33.88,143.61a3.09,3.09,0,0,1-3.08-3.09V48.75a4,4,0,0,1,4-4h126a4,4,0,0,1,4,4v91.77a3.09,3.09,0,0,1-3.08,3.09Z" transform="translate(37.45 1.25)"/><path d="M160.77,45a3.79,3.79,0,0,1,3.79,3.79v91.77a2.9,2.9,0,0,1-2.88,2.89H33.88A2.89,2.89,0,0,1,31,140.52V48.75A3.79,3.79,0,0,1,34.79,45Zm0-.4h-126a4.19,4.19,0,0,0-4.2,4.19v91.77a3.29,3.29,0,0,0,3.29,3.29h127.8a3.28,3.28,0,0,0,3.28-3.29V48.75a4.19,4.19,0,0,0-4.19-4.19Z" transform="translate(37.45 1.25)"/><path d="M165,59H30.59V48.75a4.19,4.19,0,0,1,4.2-4.19h126A4.19,4.19,0,0,1,165,48.75Z" transform="translate(37.45 1.25)"/><path class="cls-5" d="M53.7,51.78A2.22,2.22,0,1,1,55.92,54,2.22,2.22,0,0,1,53.7,51.78Z" transform="translate(37.45 1.25)"/><path class="cls-10" d="M45.17,51.78A2.22,2.22,0,1,1,47.38,54,2.21,2.21,0,0,1,45.17,51.78Z" transform="translate(37.45 1.25)"/><path class="cls-9" d="M38.85,53.8a2,2,0,1,1,2-2A2,2,0,0,1,38.85,53.8Z" transform="translate(37.45 1.25)"/><path d="M38.85,50A1.82,1.82,0,1,1,37,51.78,1.82,1.82,0,0,1,38.85,50Zm0-.4a2.22,2.22,0,1,0,2.21,2.22,2.21,2.21,0,0,0-2.21-2.22Z" transform="translate(37.45 1.25)"/><polygon class="cls-9" points="192.13 54.54 193.69 52.97 192.13 51.4 192.94 50.59 194.51 52.16 196.07 50.59 196.89 51.4 195.32 52.97 196.89 54.54 196.07 55.35 194.51 53.78 192.94 55.35 192.13 54.54"/><path d="M155.49,49.63l1.28,1.28.29.29.28-.29,1.28-1.28.53.53-1.28,1.28-.29.28.29.29,1.28,1.28-.53.53-1.28-1.28-.28-.29-.29.29-1.28,1.28-.53-.53L156.24,52l.29-.29-.29-.28L155,50.16l.53-.53Zm3.13-.57-1.56,1.57-1.57-1.57-1.1,1.1L156,51.72l-1.57,1.57,1.1,1.1,1.57-1.57,1.56,1.57,1.1-1.1-1.57-1.57,1.57-1.56-1.1-1.1Z" transform="translate(37.45 1.25)"/><g class="cls-11"><path class="cls-12" d="M30.7,80v9H28.44a.24.24,0,0,0-.2.26.23.23,0,0,0,.2.25H30.7v9H28.44a.26.26,0,0,0,0,.5H30.7v8.08H28.44a.24.24,0,0,0-.2.26.23.23,0,0,0,.2.25H30.7v9H28.44a.23.23,0,0,0-.2.25.24.24,0,0,0,.2.26H30.7v9H28.44a.26.26,0,0,0,0,.5H30.7v9H28.44a.23.23,0,0,0-.2.25.24.24,0,0,0,.2.26H30.7v6.44a.2.2,0,1,0,.4,0V136h6.29v6.44a.23.23,0,0,0,.2.25c.11,0,.19-.11.19-.25V136h6.44v6.44a.21.21,0,1,0,.4,0V136h6.29v6.44a.21.21,0,1,0,.4,0V136h6.28v6.44a.21.21,0,1,0,.4,0V136h6.29v6.44a.21.21,0,1,0,.4,0V136H71v6.44a.23.23,0,0,0,.2.25c.11,0,.19-.11.19-.25V136h6.29v6.44a.2.2,0,1,0,.4,0V136h6.29v6.44a.2.2,0,1,0,.4,0V136H91v6.44a.2.2,0,1,0,.39,0V136h6.29v6.44a.23.23,0,0,0,.2.25h0a.23.23,0,0,0,.2-.25V136h6.29v6.44a.2.2,0,1,0,.4,0V136h6.43v6.44a.21.21,0,1,0,.4,0V136h6.29v6.44a.2.2,0,1,0,.4,0V136h6.29v6.44a.2.2,0,1,0,.39,0V136h6.29v6.44a.2.2,0,1,0,.4,0V136H138v6.44a.2.2,0,1,0,.4,0V136h6.29v6.44c0,.14.08.25.19.25a.23.23,0,0,0,.2-.25V136h6.29v6.44a.21.21,0,1,0,.4,0V136H158v6.44a.23.23,0,0,0,.2.25c.11,0,.19-.11.19-.25V136h6.29v6.44a.21.21,0,1,0,.4,0V136h2.36a.24.24,0,0,0,.2-.26.23.23,0,0,0-.2-.25h-2.36v-9h2.36a.26.26,0,0,0,0-.5h-2.36v-9h2.36a.24.24,0,0,0,.2-.26.23.23,0,0,0-.2-.25h-2.36v-9h2.36a.23.23,0,0,0,.2-.25.24.24,0,0,0-.2-.26h-2.36V99h2.36a.26.26,0,0,0,0-.5h-2.36v-9h2.36a.23.23,0,0,0,.2-.25.24.24,0,0,0-.2-.26h-2.36V80h2.36a.26.26,0,0,0,0-.5h-2.36v-9h2.36a.23.23,0,0,0,.2-.25.24.24,0,0,0-.2-.26h-2.36V61.68a.21.21,0,1,0-.4,0V70h-6.29V61.68c0-.14-.08-.26-.19-.26a.24.24,0,0,0-.2.26V70h-6.29V61.68a.21.21,0,1,0-.4,0V70h-6.29V61.68a.24.24,0,0,0-.2-.26c-.11,0-.19.12-.19.26V70h-6.29V61.68a.21.21,0,1,0-.4,0V70h-6.29V61.68a.21.21,0,1,0-.4,0V70H125V61.68c0-.14-.09-.26-.19-.26a.24.24,0,0,0-.2.26V70h-6.29V61.68a.21.21,0,1,0-.4,0V70h-6.29V61.68a.21.21,0,1,0-.4,0V70H104.8V61.68a.21.21,0,1,0-.4,0V70H98.11V61.68a.24.24,0,0,0-.2-.26h0a.24.24,0,0,0-.2.26V70H91.42V61.68a.24.24,0,0,0-.2-.26c-.1,0-.19.12-.19.26V70H84.74V61.68a.21.21,0,1,0-.4,0V70H78.05V61.68a.21.21,0,1,0-.4,0V70H71.36V61.68c0-.14-.08-.26-.19-.26a.24.24,0,0,0-.2.26V70H64.68V61.68a.21.21,0,1,0-.4,0V70H58V61.68a.21.21,0,1,0-.4,0V70H51.31V61.68a.21.21,0,1,0-.4,0V70H44.62V61.68a.21.21,0,1,0-.4,0V70H37.78V61.68c0-.14-.08-.26-.19-.26a.24.24,0,0,0-.2.26V70H31.1V61.68a.21.21,0,1,0-.4,0V70H28.44a.24.24,0,0,0-.2.26.23.23,0,0,0,.2.25H30.7v9H28.44a.26.26,0,0,0,0,.5Zm6.69-.5H31.1v-9h6.29Zm0,9.48H31.1V80h6.29Zm0,9.49H31.1v-9h6.29Zm6.83-19H37.78v-9h6.44Zm0,9.48H37.78V80h6.44Zm0,9.49H37.78v-9h6.44Zm6.69-19H44.62v-9h6.29Zm0,9.48H44.62V80h6.29Zm0,9.49H44.62v-9h6.29Zm6.68-19H51.31v-9h6.28Zm0,9.48H51.31V80h6.28Zm0,9.49H51.31v-9h6.28Zm6.69-19H58v-9h6.29Zm0,9.48H58V80h6.29Zm0,9.49H58v-9h6.29ZM71,79.5H64.68v-9H71ZM71,89H64.68V80H71Zm0,9.49H64.68v-9H71Zm6.68-19H71.36v-9h6.29Zm0,9.48H71.36V80h6.29Zm0,9.49H71.36v-9h6.29Zm6.69-19H78.05v-9h6.29Zm0,9.48H78.05V80h6.29Zm0,9.49H78.05v-9h6.29ZM91,79.5H84.74v-9H91ZM91,89H84.74V80H91Zm0,9.49H84.74v-9H91Zm6.68-19H91.42v-9h6.29Zm0,9.48H91.42V80h6.29Zm0,9.49H91.42v-9h6.29Zm6.69-19H98.11v-9h6.29Zm0,9.48H98.11V80h6.29Zm0,9.49H98.11v-9h6.29Zm6.83-19H104.8v-9h6.43Zm0,9.48H104.8V80h6.43Zm0,9.49H104.8v-9h6.43Zm6.69-19h-6.29v-9h6.29Zm0,9.48h-6.29V80h6.29Zm0,9.49h-6.29v-9h6.29Zm6.69-19h-6.29v-9h6.29Zm0,9.48h-6.29V80h6.29Zm0,9.49h-6.29v-9h6.29Zm6.68-19H125v-9h6.29Zm0,9.48H125V80h6.29Zm0,9.49H125v-9h6.29Zm6.69-19h-6.29v-9H138ZM138,89h-6.29V80H138Zm0,9.49h-6.29v-9H138Zm6.69-19h-6.29v-9h6.29Zm0,9.48h-6.29V80h6.29Zm0,9.49h-6.29v-9h6.29Zm6.68-19h-6.29v-9h6.29Zm0,9.48h-6.29V80h6.29Zm0,9.49h-6.29v-9h6.29Zm6.69-19h-6.29v-9H158ZM158,89h-6.29V80H158Zm0,9.49h-6.29v-9H158Zm6.68-19h-6.29v-9h6.29Zm0,9.48h-6.29V80h6.29Zm0,9.49h-6.29v-9h6.29Zm-6.29,28.06h6.29v9h-6.29Zm0-9.48h6.29v9h-6.29Zm0-9.49h6.29v9h-6.29Zm0-2.15V99h6.29v8.08h-6.29Zm-6.68,21.12H158v9h-6.29Zm0-9.48H158v9h-6.29Zm0-9.49H158v9h-6.29Zm0-2.15V99H158v8.08h-6.29Zm-6.69,21.12h6.29v9h-6.29Zm0-9.48h6.29v9h-6.29Zm0-9.49h6.29v9h-6.29Zm0-2.15V99h6.29v8.08h-6.29Zm-6.68,21.12h6.29v9h-6.29Zm0-9.48h6.29v9h-6.29Zm0-9.49h6.29v9h-6.29Zm0-2.15V99h6.29v8.08h-6.29Zm-6.69,21.12H138v9h-6.29Zm0-9.48H138v9h-6.29Zm0-9.49H138v9h-6.29Zm0-2.15V99H138v8.08h-6.29ZM125,126.53h6.29v9H125Zm0-9.48h6.29v9H125Zm0-9.49h6.29v9H125Zm0-2.15V99h6.29v8.08H125Zm-6.68,21.12h6.29v9h-6.29Zm0-9.48h6.29v9h-6.29Zm0-9.49h6.29v9h-6.29Zm0-2.15V99h6.29v8.08h-6.29Zm-6.69,21.12h6.29v9h-6.29Zm0-9.48h6.29v9h-6.29Zm0-9.49h6.29v9h-6.29Zm0-2.15V99h6.29v8.08h-6.29Zm-6.83,21.12h6.43v9H104.8Zm0-9.48h6.43v9H104.8Zm0-9.49h6.43v9H104.8Zm0-2.15V99h6.43v8.08H104.8Zm-6.69,21.12h6.29v9H98.11Zm0-9.48h6.29v9H98.11Zm0-9.49h6.29v9H98.11Zm0-2.15V99h6.29v8.08H98.11Zm-6.69,21.12h6.29v9H91.42Zm0-9.48h6.29v9H91.42Zm0-9.49h6.29v9H91.42Zm0-2.15V99h6.29v8.08H91.42Zm-6.68,21.12H91v9H84.74Zm0-9.48H91v9H84.74Zm0-9.49H91v9H84.74Zm0-2.15V99H91v8.08H84.74Zm-6.69,21.12h6.29v9H78.05Zm0-9.48h6.29v9H78.05Zm0-9.49h6.29v9H78.05Zm0-2.15V99h6.29v8.08H78.05Zm-6.69,21.12h6.29v9H71.36Zm0-9.48h6.29v9H71.36Zm0-9.49h6.29v9H71.36Zm0-2.15V99h6.29v8.08H71.36Zm-6.68,21.12H71v9H64.68Zm0-9.48H71v9H64.68Zm0-9.49H71v9H64.68Zm0-2.15V99H71v8.08H64.68ZM58,126.53h6.29v9H58Zm0-9.48h6.29v9H58Zm0-9.49h6.29v9H58Zm0-2.15V99h6.29v8.08H58Zm-6.68,21.12h6.28v9H51.31Zm0-9.48h6.28v9H51.31Zm0-9.49h6.28v9H51.31Zm0-2.15V99h6.28v8.08H51.31Zm-6.69,21.12h6.29v9H44.62Zm0-9.48h6.29v9H44.62Zm0-9.49h6.29v9H44.62Zm0-2.15V99h6.29v8.08H44.62Zm-6.84,21.12h6.44v9H37.78Zm0-9.48h6.44v9H37.78Zm0-9.49h6.44v9H37.78Zm0-2.15V99h6.44v8.08H37.78ZM31.1,126.53h6.29v9H31.1Zm0-9.48h6.29v9H31.1Zm0-9.49h6.29v9H31.1Zm0-2.15V99h6.29v8.08H31.1Z" transform="translate(37.45 1.25)"/></g><polygon class="cls-10" points="76.12 80.38 74.01 80.37 73.99 76.24 73.22 76.23 73.25 80.36 71.14 80.35 71.15 82.92 73.26 82.93 73.3 90.58 74.06 90.59 74.03 82.93 76.13 82.95 76.12 80.38"/><polygon class="cls-5" points="83.09 75.37 80.98 75.36 80.98 73.91 80.21 73.9 80.22 75.36 78.11 75.34 78.14 81.62 80.25 81.63 80.28 87.37 81.05 87.38 81.02 81.64 83.12 81.65 83.09 75.37"/><polygon class="cls-5" points="90.11 78.82 88 78.81 87.98 75.94 87.22 75.93 87.23 78.8 85.13 78.79 85.21 95.77 87.32 95.78 87.35 102.02 88.12 102.02 88.08 95.79 90.19 95.8 90.11 78.82"/><polygon class="cls-10" points="97.19 94.91 95.08 94.9 95.04 87.86 94.28 87.86 94.31 94.9 92.2 94.88 92.25 103.95 94.36 103.97 94.4 112.31 95.17 112.31 95.12 103.97 97.23 103.98 97.19 94.91"/><polygon class="cls-5" points="104.21 100.5 102.1 100.48 102.09 97.19 101.32 97.19 101.34 100.48 99.23 100.47 99.28 110.09 101.39 110.11 101.43 118.45 102.19 118.45 102.15 110.11 104.26 110.12 104.21 100.5"/><polygon class="cls-5" points="111.22 103.62 109.12 103.61 109.09 99.25 108.33 99.24 108.35 103.6 106.24 103.59 106.28 110.14 108.38 110.15 108.44 120.59 109.2 120.6 109.15 110.15 111.26 110.16 111.22 103.62"/><polygon class="cls-10" points="118.17 94.36 116.07 94.35 116.05 90.79 115.28 90.79 115.3 94.35 113.19 94.33 113.29 113.85 115.4 113.86 115.44 121.21 116.2 121.21 116.17 113.87 118.27 113.88 118.17 94.36"/><polygon class="cls-10" points="125.17 94.32 123.06 94.31 123.02 86.5 122.26 86.5 122.3 94.31 120.19 94.29 120.23 101.53 122.33 101.54 122.35 105.33 123.12 105.33 123.1 101.54 125.21 101.56 125.17 94.32"/><polygon class="cls-10" points="132.2 100.95 130.09 100.94 130.06 94.97 129.3 94.96 129.33 100.93 127.22 100.92 127.26 109.36 129.37 109.37 129.39 113.73 130.16 113.74 130.14 109.38 132.24 109.39 132.2 100.95"/><polygon class="cls-5" points="139.24 99.89 137.13 99.88 137.08 91.27 136.32 91.27 136.36 99.88 134.25 99.86 134.35 119.23 136.46 119.24 136.52 131.13 137.29 131.14 137.23 119.25 139.33 119.26 139.24 99.89"/><polygon class="cls-10" points="146.28 109.81 144.18 109.79 144.15 104.86 143.38 104.85 143.41 109.79 141.3 109.78 141.41 131.77 143.52 131.79 143.55 137.64 144.32 137.65 144.29 131.79 146.39 131.8 146.28 109.81"/><polygon class="cls-5" points="153.27 107.39 151.16 107.38 151.13 102.44 150.37 102.44 150.39 107.37 148.29 107.36 148.34 117.12 150.44 117.14 150.45 118.47 151.22 118.48 151.21 117.14 153.32 117.15 153.27 107.39"/><polygon class="cls-5" points="160.18 94.86 158.08 94.84 158.06 90.83 157.29 90.82 157.31 94.84 155.2 94.83 155.29 112.81 157.4 112.82 157.43 117.88 158.19 117.88 158.17 112.83 160.28 112.84 160.18 94.86"/><polygon class="cls-5" points="167.17 98.06 165.06 98.05 165.06 96.55 164.29 96.55 164.3 98.04 162.19 98.03 162.23 106.29 164.34 106.31 164.36 111.13 165.13 111.13 165.11 106.31 167.21 106.32 167.17 98.06"/><polygon class="cls-10" points="174.11 85.9 172 85.89 171.98 81.53 171.21 81.52 171.23 85.89 169.13 85.87 169.2 99.73 171.3 99.74 171.33 104.33 172.09 104.33 172.07 99.74 174.18 99.75 174.11 85.9"/><polygon class="cls-10" points="181.05 92.22 178.94 92.21 178.92 88.88 178.16 88.88 178.17 92.2 176.06 92.19 176.13 105.99 178.24 106 178.3 118.28 179.07 118.29 179.01 106.01 181.12 106.02 181.05 92.22"/><polygon class="cls-5" points="187.99 81.11 185.88 81.1 185.86 77.88 185.1 77.88 185.11 81.09 183.01 81.08 183.13 105.01 185.23 105.02 185.26 110.95 186.03 110.96 186 105.03 188.11 105.04 187.99 81.11"/><polygon class="cls-10" points="195.01 85.91 192.9 85.9 192.88 80.96 192.11 80.96 192.13 85.89 190.03 85.88 190.06 91.43 192.16 91.44 192.19 95.81 192.95 95.81 192.93 91.45 195.04 91.46 195.01 85.91"/><path class="cls-10" d="M65.45,215.81H45.9a6,6,0,0,1-6-6h0a6,6,0,0,1,6-6H65.45Z" transform="translate(37.45 1.25)"/><path class="cls-13" d="M39.89,209.1a6.05,6.05,0,0,1,6-5.37H65.45v4.74c-2.34.91-5,2-5.85.63-1-1.54-4.23-4-4.23-4s-6.27,0-10.54,0A4.92,4.92,0,0,0,39.89,209.1Z" transform="translate(37.45 1.25)"/><path class="cls-9" d="M58.94,214.35a4.67,4.67,0,1,1,0-9.34H93.71v9.34Z" transform="translate(37.45 1.25)"/><path d="M93.46,205.26v8.85H58.94a4.43,4.43,0,0,1,0-8.85Zm.5-.5h-35a4.93,4.93,0,0,0,0,9.85H94v-9.85Z" transform="translate(37.45 1.25)"/><path d="M96,213.74H59.23a4,4,0,1,1,0-7.94H96v-2.07H59.23a6,6,0,1,0,0,12.08H96Z" transform="translate(37.45 1.25)"/><path class="cls-5" d="M70.87,193.72H54.4a3.58,3.58,0,0,1-3.58-3.59h0a3.58,3.58,0,0,1,3.58-3.58H70.87Z" transform="translate(37.45 1.25)"/><path class="cls-9" d="M69.4,192.75a2.67,2.67,0,1,1,0-5.34H95.69v5.34Z" transform="translate(37.45 1.25)"/><path d="M95.44,187.66v4.84h-26a2.42,2.42,0,0,1,0-4.84Zm.5-.5H69.4a2.92,2.92,0,0,0,0,5.84H95.94v-5.84Z" transform="translate(37.45 1.25)"/><path d="M97.17,192.49H69.58a2.36,2.36,0,1,1,0-4.71H97.17v-1.23H69.58a3.59,3.59,0,1,0,0,7.17H97.17Z" transform="translate(37.45 1.25)"/><path class="cls-5" d="M57,203.73H87.09a5,5,0,0,0,5-5h0a5,5,0,0,0-5-5H57Z" transform="translate(37.45 1.25)"/><path d="M87.09,193.72a5,5,0,0,1,5,5,4.89,4.89,0,0,1,0,.54,6.07,6.07,0,0,0-5.49-3.44c-4,0-21.53,0-21.53,0l-4.76-2.1Z" transform="translate(37.45 1.25)"/><path class="cls-9" d="M45.08,202.48v-7.66H62.4a3.83,3.83,0,1,1,0,7.66Z" transform="translate(37.45 1.25)"/><path d="M62.4,195.07a3.58,3.58,0,1,1,0,7.16H45.33v-7.16Zm0-.5H44.83v8.16H62.4a4.08,4.08,0,1,0,0-8.16Z" transform="translate(37.45 1.25)"/><path d="M43.12,202h19a3.29,3.29,0,1,0,0-6.58h-19v-1.71h19a5,5,0,0,1,0,10h-19Z" transform="translate(37.45 1.25)"/><path class="cls-9" d="M191.8,205.1c.46-.66,5.89-.51,6-.19.23,1,.74,4.77.26,5.31s-4.64,2.54-4.81,1.59S191.36,205.73,191.8,205.1Z" transform="translate(37.45 1.25)"/><path d="M193.66,212.31a.79.79,0,0,1-.28,0,.54.54,0,0,1-.41-.42c0-.21-.19-.78-.38-1.43-.92-3.25-1.32-5-1-5.47h0c.52-.75,4.88-.6,5.89-.41.23.05.47.11.52.32.09.38.87,4.79.21,5.53A10.92,10.92,0,0,1,193.66,212.31ZM192,205.24c-.24.43.67,3.66,1.06,5,.21.73.35,1.25.4,1.48,0,0,0,0,.21.05a10.91,10.91,0,0,0,4.17-1.76c.33-.37,0-3.61-.31-5C196.79,204.8,192.38,204.81,192,205.24Z" transform="translate(37.45 1.25)"/><path d="M198.34,209s2.65,3.62,1.06,6.55c0,0-10.42.54-14.39.19,0,0-2.68-3.32.65-4s6.52-1.47,6.52-1.47S196.07,211.85,198.34,209Z" transform="translate(37.45 1.25)"/><path class="cls-9" d="M172.78,205.2c.51-.62,5.91-.06,6,.26.16,1,.39,4.81-.13,5.31s-5.9.43-6-.53S172.3,205.8,172.78,205.2Z" transform="translate(37.45 1.25)"/><path d="M176.35,211.32a11,11,0,0,1-3.27-.4c-.17-.06-.68-.24-.72-.66,0,0-.4-4.44.23-5.22h0c.58-.71,4.92-.23,5.91,0,.23.06.46.14.49.35.11.66.47,4.89-.2,5.53A5.07,5.07,0,0,1,176.35,211.32Zm-3.37-6c-.35.43-.27,3.43-.12,4.85,0,0,.06.11.3.21a11.17,11.17,0,0,0,5.28.17c.36-.34.28-3.6.07-5C177.78,205.27,173.38,205,173,205.36Z" transform="translate(37.45 1.25)"/><path d="M179,209.61s2.48,3.6.67,6.39c0,0-10.53,0-14.46-.67,0,0-2.42-3.51.95-3.9s6.61-1,6.61-1S176.54,212.25,179,209.61Z" transform="translate(37.45 1.25)"/><path d="M171.21,206.52l3.74.38,4.92.51,0,0a.28.28,0,0,1,.05-.12s0,0,0,0c.43-1,0-9-.09-15.74,0-8.35,3.6-20.1,4.2-28.3.06-.68.11-1.32.16-1.91.33-4.12,3.57-12.05,6.22-18.85.38-1,.76-2,1.1-2.88,1.72-4.57,2.87-8.2,2.15-9-1.89-2.14-12.53-17.78-18.94-10.56-7.33,8.27-8.54,29.86-8.54,41.51S169.35,194.88,171.21,206.52Z" transform="translate(37.45 1.25)"/><path d="M175,206.9l4.92.51,0,0a.28.28,0,0,1,.05-.12s0,0,0,0c.51-.87.22-6.24,1.34-16.66.9-8.31,2-19.18,2.77-27.38.06-.68.11-1.32.16-1.91.33-4.12,3.57-12.05,6.22-18.85.38-1,.76-2,1.1-2.88l-.19-.13a.58.58,0,0,0-.59-.05c-1.64-2.2-5.19-4.34-7.06-1.15-1.05,1.79.15,3.89.26,5.74.23,3.74-2.13,7.1-3.59,10.37-5.2,11.67-1,24.54-2.41,36.73C177.24,197.47,174.44,200.38,175,206.9Z" transform="translate(37.45 1.25)"/><path d="M187.66,167.39c-.11,11.64-.47,31.32,4.27,40.39,0,0,6.59.11,6.72-.51.86-4,1.64-15.77,2.53-23.5,2-17.43,2.31-13.6,3.22-21.23,1.8-15.36,6.65-22.54,4.19-34.27-.17-.82-.38-1.65-.61-2.52-.58-2-3.66-5.65-4.72-8-.15-.34-9.64-.29-14.31,3.62C188.46,121.73,187.84,149.31,187.66,167.39Z" transform="translate(37.45 1.25)"/><path d="M209.49,80c-1.29.16-4.23,1-5.47-1.51a11.22,11.22,0,0,1-.62-3.62,39.84,39.84,0,0,0-.46-4.64,8.17,8.17,0,0,0-2.79-5.07c-2.56-1.86-7.42-.47-8.79,2.31a.56.56,0,0,0,.14.69.39.39,0,0,0,.08.14c1.56,1.83,3.37,1.89,4,4.86.3,1.53-.1,3.14-.06,4.68.06,2.83,1.13,6,3.55,7.63,3.88,2.68,10.42-.49,11.39-4.84A.63.63,0,0,0,209.49,80Z" transform="translate(37.45 1.25)"/><path class="cls-9" d="M163.36,69.55a7.46,7.46,0,0,1,.55,2.79c0,.12.05.23.09.35a2.77,2.77,0,0,1,.29-.22c.67-.38,1.83-.53,2.26.29s-.66,1.55-1.18,2.07a6.8,6.8,0,0,0-1.52,2.06,11.35,11.35,0,0,0-.3,2.47c-.05.59,0,1.56-.55,2a3.07,3.07,0,0,1-1.92.33,2,2,0,0,1-1.33-1.19,6.09,6.09,0,0,1-.58-1.49,5.15,5.15,0,0,1-.43-2.86,4.27,4.27,0,0,1,.18-.61,4.9,4.9,0,0,1-.55-2.65.59.59,0,0,1,.78-.53,1.24,1.24,0,0,1,.24-.52.84.84,0,0,1,.56-.28,1.77,1.77,0,0,1,.31-.5,1.62,1.62,0,0,1,1.66-.55,7.92,7.92,0,0,0-2-2.14.64.64,0,0,1,.11-1.09C161.34,66.48,162.89,68.49,163.36,69.55Z" transform="translate(37.45 1.25)"/><path d="M161.49,81.94a2.85,2.85,0,0,1-.44,0,2.22,2.22,0,0,1-1.52-1.32,6.68,6.68,0,0,1-.61-1.55,5.52,5.52,0,0,1-.43-3,3.46,3.46,0,0,1,.16-.54,5.11,5.11,0,0,1-.53-2.68.79.79,0,0,1,.33-.63.87.87,0,0,1,.52-.16,1.09,1.09,0,0,1,.23-.41,1,1,0,0,1,.58-.34,1.83,1.83,0,0,1,.29-.45,2,2,0,0,1,1.35-.68,8.57,8.57,0,0,0-1.69-1.64.88.88,0,0,1-.35-.76.93.93,0,0,1,.49-.75,1.53,1.53,0,0,1,1.31-.11,5,5,0,0,1,2.41,2.53h0a7.71,7.71,0,0,1,.57,2.81h0A2.42,2.42,0,0,1,166,72a1.34,1.34,0,0,1,.81.66c.45.89-.36,1.6-.9,2.07a3.09,3.09,0,0,0-.32.29,6.55,6.55,0,0,0-1.47,2,7.63,7.63,0,0,0-.24,1.76c0,.21,0,.42-.05.63s0,.2,0,.31a2.38,2.38,0,0,1-.63,1.84A3.06,3.06,0,0,1,161.49,81.94ZM159,72.56a.39.39,0,0,0-.23.07.3.3,0,0,0-.12.25,4.65,4.65,0,0,0,.52,2.51l.06.1,0,.11a2.74,2.74,0,0,0-.17.57,5,5,0,0,0,.41,2.72,5.9,5.9,0,0,0,.57,1.46c.29.51.6,1,1.15,1.07a3,3,0,0,0,1.73-.29c.37-.27.4-.93.43-1.46a3.25,3.25,0,0,1,0-.33c0-.2,0-.41,0-.62a8.37,8.37,0,0,1,.27-1.9,7.06,7.06,0,0,1,1.59-2.17,3.6,3.6,0,0,1,.34-.31c.62-.54,1-1,.78-1.46a.8.8,0,0,0-.5-.41,2,2,0,0,0-1.4.21l-.16.12-.12.09-.29.21-.09-.34a1.24,1.24,0,0,1,0-.16,1,1,0,0,0,0-.17l0-.08a7.13,7.13,0,0,0-.53-2.7h0A4.48,4.48,0,0,0,161,67.4a1.08,1.08,0,0,0-.9.06.47.47,0,0,0-.24.36.33.33,0,0,0,.16.32,8.09,8.09,0,0,1,2.1,2.22l.31.53-.6-.16a1.37,1.37,0,0,0-1.41.46,1.83,1.83,0,0,0-.26.44l-.06.13-.14,0a.56.56,0,0,0-.4.19.82.82,0,0,0-.18.41l-.05.26-.26-.07Z" transform="translate(37.45 1.25)"/><path class="cls-5" d="M161.23,100.43c-3.72-6.89-2.06-20.8-2.06-20.8l4.68,0c.14.25,3.36,15.58,5.44,15,.91-.24,9.23-12.61,19.16-9.32,2.13.71,1.5.81,1,3-1,4.43-7.1,12.52-13,15.79C169.43,107.93,164.75,107,161.23,100.43Z" transform="translate(37.45 1.25)"/><path d="M176.1,94.18s-.28,5.58,1.86,9c0,0,3.34-2,4.34-4.18S176.1,94.18,176.1,94.18Z" transform="translate(37.45 1.25)"/><path class="cls-5" d="M209.69,123.66A23.06,23.06,0,0,1,203,126c-13.77,2.75-31.77-3.91-31.77-3.91s4-6,7.27-12.27c.32-.58.62-1.15.91-1.74,1.46-2.89,1.14-4.79.26-6.48-1.2-2.33-3.47-4.24-3.62-7.79-.24-6.11,12.79-11.22,12.79-11.22,19.53-1.17,14.91,10.29,13,19.57-.17.85-.32,1.67-.42,2.46,0,.18,0,.36-.05.53s0,.45,0,.69C201.05,115,209.69,123.66,209.69,123.66Z" transform="translate(37.45 1.25)"/><path d="M201.4,105.88c0-.16,0-.32,0-.48s0-.49.06-.74c.1-.8,2.11-9.64,2.2-11.84-.53-1-2.25,5.73-3.59,4.48C196.55,93.94,197,85.36,197,85.36c-.81,4.12-1.46,12.22-.09,14.74.3.54,1.34,2.63,1.41,2.72,1,3.11.26,6.22.42,9.39a25.81,25.81,0,0,0,2.14,8c.54,1.36,1.12,4.33,2.15,5.86a23.06,23.06,0,0,0,6.66-2.38S201.05,115,201.4,105.88Z" transform="translate(37.45 1.25)"/><path class="cls-9" d="M186.83,80v3.45s-.93,1.71,0,1.89c2,.41,5-2.77,5-2.77V77.91Z" transform="translate(37.45 1.25)"/><path d="M187.21,85.61a2,2,0,0,1-.43,0,.73.73,0,0,1-.53-.4c-.26-.57.2-1.53.33-1.8V79.81l5.49-2.27v5.11l-.06.07C191.89,82.84,189.31,85.61,187.21,85.61Zm-.13-5.47,0,3.41c-.22.42-.48,1.12-.34,1.41a.2.2,0,0,0,.17.12c1.73.35,4.25-2.18,4.69-2.63V78.28Z" transform="translate(37.45 1.25)"/><path class="cls-9" d="M185.61,69.89a27.37,27.37,0,0,0-2.3,7.2c-.33,2.47,4.19,5.72,7.86,2.25s2.66-8.78,2.66-8.78Z" transform="translate(37.45 1.25)"/><path d="M187.64,81.11a5,5,0,0,1-2.25-.56,3.76,3.76,0,0,1-2.33-3.49,28.36,28.36,0,0,1,2.32-7.28l.08-.15,8.58.69,0,.19s1,5.48-2.73,9A5.41,5.41,0,0,1,187.64,81.11Zm-1.88-11a27,27,0,0,0-2.2,7,3.31,3.31,0,0,0,2.06,3,4.58,4.58,0,0,0,5.38-1c3.15-3,2.74-7.41,2.61-8.37Z" transform="translate(37.45 1.25)"/><path d="M183.83,69.76c.25-.15.58-.16.82-.32.75-.48.44-.71.87-1.18a3,3,0,0,1,1.25-.88,7.46,7.46,0,0,1,4.24,0,.52.52,0,0,1,.32.8,6.25,6.25,0,0,1,3.36,2.41,6.32,6.32,0,0,1,.13,6.36c-.91,1.38-2.61,2.51-3.52.68a7.41,7.41,0,0,1-.47-4.19,6.9,6.9,0,0,0,0-1.44A3.65,3.65,0,0,0,188,70.34c-.28.28-.51.69-.77,1a4.06,4.06,0,0,1-1.39,1,2.06,2.06,0,0,1-2.53-.41A1.48,1.48,0,0,1,183.83,69.76Z" transform="translate(37.45 1.25)"/><path class="cls-9" d="M190.47,73.84s1.48-.69,1.77.5A1.26,1.26,0,0,1,190.89,76C190.32,75.79,190.13,74.34,190.47,73.84Z" transform="translate(37.45 1.25)"/><path d="M191.12,76.3a.87.87,0,0,1-.32-.06,1.18,1.18,0,0,1-.63-.82,2.28,2.28,0,0,1,.1-1.73l0,0,.07,0a2,2,0,0,1,1.53-.1,1.09,1.09,0,0,1,.59.76,1.63,1.63,0,0,1-.48,1.66A1.37,1.37,0,0,1,191.12,76.3ZM190.64,74a2.05,2.05,0,0,0,0,1.23.75.75,0,0,0,.33.5.74.74,0,0,0,.7-.21A1.14,1.14,0,0,0,192,74.4a.6.6,0,0,0-.31-.44A1.44,1.44,0,0,0,190.64,74Z" transform="translate(37.45 1.25)"/><path class="cls-10" d="M194.68,69.76A5,5,0,0,0,191.34,67c-.73-.27-1.25.84-.51,1.11a4,4,0,0,1,2.7,2.05A.61.61,0,0,0,194.68,69.76Z" transform="translate(37.45 1.25)"/><path class="cls-14" d="M189,101.3A2.8,2.8,0,1,0,192.2,99,2.79,2.79,0,0,0,189,101.3Zm1,.16a1.8,1.8,0,1,1,1.49,2.08A1.8,1.8,0,0,1,190,101.46Z" transform="translate(37.45 1.25)"/><path class="cls-15" d="M182,123.81l12,2a2.24,2.24,0,0,0,2.58-1.85l3.05-18.6a2.25,2.25,0,0,0-1.86-2.59l-12-2a2.25,2.25,0,0,0-2.58,1.86l-3.05,18.6A2.25,2.25,0,0,0,182,123.81Z" transform="translate(37.45 1.25)"/><path class="cls-9" d="M185.1,113.61c-.68-.87.26-4.15.26-4.17,2.08.42,4.6.39,5.32,1.33.35.44-1.3,3.15-1.44,3.11C188.93,113.79,185.13,113.66,185.1,113.61Z" transform="translate(37.45 1.25)"/><path d="M189.25,114.14l-.08,0c-.18,0-1.6-.11-2.54-.16-1.64-.08-1.65-.08-1.73-.19-.57-.73-.21-2.74.19-4.3h0l-.15-.35.46.09c.61.12,1.26.2,1.89.29,1.61.2,3,.39,3.58,1.12s-1.17,3.11-1.19,3.13C189.55,114,189.42,114.14,189.25,114.14Zm-4-.76,1.41.08c1.44.07,2.2.11,2.52.16a7.77,7.77,0,0,0,1.31-2.72c-.44-.56-1.8-.73-3.25-.92-.56-.07-1.13-.14-1.69-.25C185.08,111.55,185,112.89,185.24,113.38Z" transform="translate(37.45 1.25)"/><path class="cls-5" d="M215.25,115.44c3.34-7.73-1.52-18.79-3.63-22.6-3-5.4-11-10.91-14.33-8.12-1.29,1.07-.6,4.2-.4,5.17,1.69,7.87,7.52,19.09,7.47,20.71-.08,2-13.76-2.81-14.86-1.3,0,0-2.46,4.91-1.48,5.64C188,114.94,208.94,129.94,215.25,115.44Z" transform="translate(37.45 1.25)"/><path class="cls-9" d="M180.78,111.87a1.1,1.1,0,0,1-.05-1.23.5.5,0,0,1,.12-.13.82.82,0,0,1-.22-1,1,1,0,0,1,.78-.58,1.19,1.19,0,0,1,0-.32c.41-1.42,2.72,0,3.47.23a.51.51,0,0,1,.35.49l.18.14a3.4,3.4,0,0,1,.37,3.11,2.4,2.4,0,0,1-2.69,1.5c-.84-.09-2.61-.39-2.76-1.45A.67.67,0,0,1,180.78,111.87Z" transform="translate(37.45 1.25)"/><path d="M183.5,114.4l-.4,0c-1.27-.14-2.83-.53-3-1.67a.94.94,0,0,1,.34-.94,1.28,1.28,0,0,1,.07-1.27,1,1,0,0,1-.12-1,1.23,1.23,0,0,1,.77-.67.75.75,0,0,1,0-.2,1.07,1.07,0,0,1,.57-.7c.76-.35,2,.2,2.77.57l.46.2a.74.74,0,0,1,.5.59l.12.1a3.6,3.6,0,0,1,.42,3.37A2.56,2.56,0,0,1,183.5,114.4Zm-1.15-6.12a.87.87,0,0,0-.37.07.57.57,0,0,0-.3.38.82.82,0,0,0,0,.23l0,.21-.21,0a.82.82,0,0,0-.61.44.57.57,0,0,0,.17.68l.15.16-.14.17-.07.07a.84.84,0,0,0,0,1l.15.24-.26.12a.44.44,0,0,0-.28.54c.13.89,1.83,1.16,2.55,1.24a2.12,2.12,0,0,0,2.42-1.33,3.15,3.15,0,0,0-.31-2.85.35.35,0,0,0-.1-.08l-.1-.08-.05-.16a.25.25,0,0,0-.18-.25l-.5-.22A5.73,5.73,0,0,0,182.35,108.28Z" transform="translate(37.45 1.25)"/><path class="cls-9" d="M182.34,106.5a2.78,2.78,0,0,1,2.43.25,7.79,7.79,0,0,1,1.86,2.85c.4.23-.13.23-.75.35s-1.57,0-1.77-.83c-.09-.36,0-.71-.3-1a2.24,2.24,0,0,0-1.36-.44A.61.61,0,0,1,182.34,106.5Z" transform="translate(37.45 1.25)"/><path d="M185.4,110.25a1.45,1.45,0,0,1-1.54-1.07,2.52,2.52,0,0,1-.05-.37.74.74,0,0,0-.17-.52,2,2,0,0,0-1.21-.37.86.86,0,0,1-.16-1.66h0a3,3,0,0,1,2.64.29,7.76,7.76,0,0,1,1.92,2.88.37.37,0,0,1,.18.35c0,.25-.29.28-.69.35l-.39.06A2.46,2.46,0,0,1,185.4,110.25Zm-2-3.66a3.6,3.6,0,0,0-1,.15h0a.33.33,0,0,0-.19.36.31.31,0,0,0,.26.32,2.4,2.4,0,0,1,1.52.52,1.21,1.21,0,0,1,.32.82,1.54,1.54,0,0,0,0,.3c.2.83,1.19.7,1.49.64l.4-.07.12,0a7.39,7.39,0,0,0-1.73-2.65A2.11,2.11,0,0,0,183.39,106.59Z" transform="translate(37.45 1.25)"/><path class="cls-9" d="M187.13,109.9a1.11,1.11,0,0,1-.86-.68,1.69,1.69,0,0,0-2-.6c-.3.21-.57-.14-1.08-.25s0,1.79,0,1.79l1.53,3.51a2.19,2.19,0,0,1,1.13-.19c.75,0,1.69-2.75,1.69-2.75Z" transform="translate(37.45 1.25)"/><path class="cls-5" d="M196.86,88.53s-.3-.46-.37.17-2.06.84-2.08.51a3.89,3.89,0,0,1,0-2.36c.45-.91.69-1.14,1-1.8s.47-.85.62-.91,2.39-.44,2.39-.44l3.31.83s-1.52,2.23-1.54,2.28S196.86,88.53,196.86,88.53Z" transform="translate(37.45 1.25)"/><path class="cls-9" d="M190.83,73.46l.08,1.91,0,.4a.52.52,0,0,0,0,.42c.06.3-1.62.36-1.62.36a2.8,2.8,0,0,1-.45-1.54c.05-.83.05-1.48.36-1.76s.38-.56.81-.41.8.33.8.33Z" transform="translate(37.45 1.25)"/><polygon points="223.47 127.28 225.54 127.58 226.79 139.17 224.84 138.06 223.47 127.28"/><path d="M107.82,30.89c4.52-4.2,5.61-12,2.22-19.07S100,.78,93.9,1.6l-.23-.49-3.12,1.5c-6.77,3.24-9,12.63-5,21S98.27,36,105,32.8l3-1.37Z" transform="translate(37.45 1.25)"/><path class="cls-10" d="M113.16,10.33c4,8.33,1.68,17.85-5.08,21.1s-15.42-1-19.42-9.35-1.76-17.72,5-21S109.16,2,113.16,10.33Z" transform="translate(37.45 1.25)"/><path class="cls-10" d="M111,11.38c3.28,6.85,1.38,14.67-4.18,17.34s-12.66-.83-16-7.68S89.41,6.48,95,3.81,107.69,4.53,111,11.38Z" transform="translate(37.45 1.25)"/><path d="M107.5,16.84a3.91,3.91,0,0,0-.58-1.05,3.51,3.51,0,0,0-.82-.72,4.39,4.39,0,0,0-1-.48,7.78,7.78,0,0,0-1.13-.26,9.32,9.32,0,0,0-1.21-.14l-1.25-.08-1.85-5a3,3,0,0,1,1.69.15,3.9,3.9,0,0,1,1.41,1.12l1.8-.66a5.14,5.14,0,0,0-1.13-1.4,4.62,4.62,0,0,0-1.35-.81,4.88,4.88,0,0,0-1.51-.3A5.94,5.94,0,0,0,99,7.35l-.59-1.61-1.82.67L97.2,8a5.67,5.67,0,0,0-1.35,1,4.92,4.92,0,0,0-.93,1.28,4.07,4.07,0,0,0-.42,1.46c0,.12,0,.24,0,.36a3.74,3.74,0,0,0,.23,1.17,4,4,0,0,0,.23.51,3.41,3.41,0,0,0,.65.87,4,4,0,0,0,1.29.79c.23.09.47.17.71.24l.38.08.4.07h.08c.55.08,1.13.13,1.71.17l1.56,4.22.07.18h0l.07.18.31.86a2.75,2.75,0,0,1-1-.12,3.39,3.39,0,0,1-.68-.29l-.21-.12h0l-.05,0-.14-.11a4.39,4.39,0,0,1-.69-.62,4.56,4.56,0,0,1-.7-1l-1.91.71a6.51,6.51,0,0,0,1,1.43l0,0,.09.1h0l0,0,.11.1.05,0a5.86,5.86,0,0,0,1.26.93l.37.18a.88.88,0,0,0,.2.09l.21.08a4.66,4.66,0,0,0,.88.26,5.14,5.14,0,0,0,1.75.06l.94,2.55,1.81-.67-.92-2.51a7.44,7.44,0,0,0,1.45-1,5.34,5.34,0,0,0,1.11-1.32,4.39,4.39,0,0,0,.53-1.64A4.12,4.12,0,0,0,107.5,16.84Zm-10.93-4.3a2,2,0,0,1,.05-1.48A2.75,2.75,0,0,1,97.85,9.8l1.59,4.29a7.34,7.34,0,0,1-1-.15,3.76,3.76,0,0,1-.82-.28,2.3,2.3,0,0,1-.64-.45A1.91,1.91,0,0,1,96.57,12.54Zm9.21,6a2.22,2.22,0,0,1-.23.9,2.92,2.92,0,0,1-.59.84,3.49,3.49,0,0,1-.93.68l-1.78-4.83a9.91,9.91,0,0,1,1.11.13,4.71,4.71,0,0,1,1,.26,2.48,2.48,0,0,1,.79.43,1.38,1.38,0,0,1,.48.66A2.27,2.27,0,0,1,105.78,18.51Z" transform="translate(37.45 1.25)"/><path d="M97.91,28.57a15.87,15.87,0,0,1-7.19-7.47c-3.31-6.91-1.43-14.72,4.19-17.41a10.29,10.29,0,0,1,9,.21,15.55,15.55,0,0,1,7.22,7.42,15.6,15.6,0,0,1,1.24,10.33,10.38,10.38,0,0,1-5.48,7.19,9.27,9.27,0,0,1-1.76.64A10.55,10.55,0,0,1,97.91,28.57Zm12.94-17.13a15.21,15.21,0,0,0-7.09-7.28A10,10,0,0,0,95,3.94c-5.48,2.63-7.3,10.27-4,17a15.53,15.53,0,0,0,7,7.34,9.88,9.88,0,0,0,8.71.27,10.11,10.11,0,0,0,5.33-7,15.25,15.25,0,0,0-1.22-10.15Z" transform="translate(37.45 1.25)"/><path d="M136.64,196.34c-5.43-.17-10.68-4.73-12.51-11.38s.3-13.16,4.81-16.13l-.13-.46,2.94-.81c6.37-1.76,13.29,3.18,15.46,11S146,194.24,139.59,196l-2.81.85Z" transform="translate(37.45 1.25)"/><path class="cls-10" d="M121.19,185.77c2.17,7.85,9.22,12.84,15.59,11.08s9.66-9.59,7.49-17.45-9.09-12.79-15.46-11S119,177.92,121.19,185.77Z" transform="translate(37.45 1.25)"/><path class="cls-10" d="M123.25,185.21c1.78,6.45,7.57,10.54,12.81,9.1s7.93-7.88,6.15-14.33-7.46-10.51-12.7-9.07S121.47,178.76,123.25,185.21Z" transform="translate(37.45 1.25)"/><path d="M137.64,183.24a3.33,3.33,0,0,0-.55-.9,3.4,3.4,0,0,0-.75-.61,4,4,0,0,0-.9-.37,7.86,7.86,0,0,0-1-.19c-.35,0-.7-.06-1.07-.07h-1.1l-1.84-4.33a2.58,2.58,0,0,1,1.49.06,3.22,3.22,0,0,1,1.3.93l1.55-.67a4.84,4.84,0,0,0-1-1.18,3.85,3.85,0,0,0-1.23-.65,4.05,4.05,0,0,0-1.33-.2,4.87,4.87,0,0,0-1.37.19l-.59-1.39-1.57.67.59,1.39a4.77,4.77,0,0,0-1.14.94,4.31,4.31,0,0,0-.77,1.17,3.49,3.49,0,0,0-.31,1.3c0,.11,0,.21,0,.32a3.17,3.17,0,0,0,.25,1c.07.15.14.3.22.44a2.79,2.79,0,0,0,.62.73,3.38,3.38,0,0,0,1.16.65,4.64,4.64,0,0,0,.64.17l.33.06.36,0h.07c.49.05,1,.07,1.51.08l1.55,3.65.07.15h0l.07.15.31.75a2.89,2.89,0,0,1-.88-.07,2.82,2.82,0,0,1-.61-.23l-.19-.1h0l0,0-.13-.09a4.21,4.21,0,0,1-.64-.51,4.79,4.79,0,0,1-.65-.82l-1.66.7a6.28,6.28,0,0,0,1,1.22l0,0,.08.08h0l0,0,.1.08s0,0,0,0a5.65,5.65,0,0,0,1.16.76l.32.14a.89.89,0,0,0,.19.07l.18.07a4.54,4.54,0,0,0,.79.19,4.68,4.68,0,0,0,1.54,0l.94,2.2,1.56-.66-.91-2.17a6.62,6.62,0,0,0,1.23-.91,4.46,4.46,0,0,0,.92-1.21,3.65,3.65,0,0,0,.4-1.46A3.59,3.59,0,0,0,137.64,183.24Zm-9.79-3.33a1.67,1.67,0,0,1,0-1.3,2.46,2.46,0,0,1,1-1.17l1.57,3.72a7.7,7.7,0,0,1-.87-.1,2.77,2.77,0,0,1-.74-.21,2.05,2.05,0,0,1-.58-.37A1.69,1.69,0,0,1,127.85,179.91Zm8.35,4.86a2.06,2.06,0,0,1-.17.81,2.66,2.66,0,0,1-.48.77,3.18,3.18,0,0,1-.79.63L133,182.8c.34,0,.66,0,1,.07a4.77,4.77,0,0,1,.9.19,2.46,2.46,0,0,1,.71.34,1.4,1.4,0,0,1,.45.57A2.05,2.05,0,0,1,136.2,184.77Z" transform="translate(37.45 1.25)"/><path d="M137.62,193.83a8.11,8.11,0,0,1-1.53.6,9.17,9.17,0,0,1-7.8-1.61,14.28,14.28,0,0,1-4.65-16.69,9.07,9.07,0,0,1,5.84-5.33c5.29-1.46,11.06,2.64,12.85,9.15a13.94,13.94,0,0,1-.45,9.12A9.3,9.3,0,0,1,137.62,193.83Zm-14.25-8.65a13.48,13.48,0,0,0,5.06,7.44,8.92,8.92,0,0,0,7.59,1.57,8.7,8.7,0,0,0,5.63-5.22,13.66,13.66,0,0,0,.44-9c-1.75-6.37-7.38-10.4-12.54-9a8.82,8.82,0,0,0-5.68,5.2,13.44,13.44,0,0,0-.5,9Z" transform="translate(37.45 1.25)"/><path d="M4.72,124.63c-2.92-2.72-3.62-7.77-1.43-12.34s6.51-7.14,10.44-6.61l.15-.32,2,1c4.38,2.1,5.83,8.18,3.24,13.57s-8.23,8.06-12.61,6l-2-.88Z" transform="translate(37.45 1.25)"/><path class="cls-10" d="M1.27,111.32C-1.32,116.72.18,122.88,4.56,125s10-.66,12.56-6,1.14-11.47-3.24-13.57S3.86,105.93,1.27,111.32Z" transform="translate(37.45 1.25)"/><path class="cls-10" d="M2.68,112c-2.12,4.43-.89,9.49,2.71,11.21s8.19-.53,10.31-5,.94-9.42-2.66-11.15S4.81,107.58,2.68,112Z" transform="translate(37.45 1.25)"/><path d="M11.6,117.85a2.29,2.29,0,0,0,.13-.76,2.63,2.63,0,0,0-.12-.69,3,3,0,0,0-.32-.64,3.8,3.8,0,0,0-.47-.59,5.92,5.92,0,0,0-.56-.56l-.6-.54,1.07-3.29a2,2,0,0,1,.8.76,2.34,2.34,0,0,1,.26,1.14l1.18.38a3.21,3.21,0,0,0,0-1.16,2.9,2.9,0,0,0-.36-1,2.93,2.93,0,0,0-.65-.75,3.58,3.58,0,0,0-.85-.56l.35-1-1.2-.39-.34,1.06a3.63,3.63,0,0,0-1.09,0,2.92,2.92,0,0,0-1,.28,2.54,2.54,0,0,0-.8.57.8.8,0,0,0-.15.17,2.16,2.16,0,0,0-.36.69,2.25,2.25,0,0,0-.09.35,2.07,2.07,0,0,0,0,.7,2.61,2.61,0,0,0,.33.92,3.62,3.62,0,0,0,.27.41l.15.19.18.2,0,0c.25.26.52.52.8.78l-.9,2.76,0,.12h0l0,.12-.18.57a2.15,2.15,0,0,1-.69-.88.88.88,0,0,1,0-.15h0a.06.06,0,0,0,0,0l0-.11a2.69,2.69,0,0,1-.1-.59,3.33,3.33,0,0,1,0-.77l-1.25-.4a4,4,0,0,0,0,1.14s0,0,0,0v.08h0a.08.08,0,0,1,0,0,.29.29,0,0,0,0,.09s0,0,0,0a3.83,3.83,0,0,0,.27,1l.11.24.07.13.07.12a2.9,2.9,0,0,0,.35.49,3.18,3.18,0,0,0,.86.73l-.55,1.67,1.19.39.54-1.65a4.63,4.63,0,0,0,1.12.1,3.37,3.37,0,0,0,1.1-.23,2.67,2.67,0,0,0,.92-.62A2.5,2.5,0,0,0,11.6,117.85Zm-3.82-6.56a1.24,1.24,0,0,1,.62-.73,1.72,1.72,0,0,1,1.13-.15l-.92,2.82a5.94,5.94,0,0,1-.43-.47,2.16,2.16,0,0,1-.31-.48,1.25,1.25,0,0,1-.14-.48A1.27,1.27,0,0,1,7.78,111.29ZM10.06,118a1.47,1.47,0,0,1-.48.37,2.1,2.1,0,0,1-.63.19,2.4,2.4,0,0,1-.75,0l1-3.17a6.38,6.38,0,0,1,.52.52,3.21,3.21,0,0,1,.4.53,1.85,1.85,0,0,1,.23.53,1.06,1.06,0,0,1,0,.53A1.62,1.62,0,0,1,10.06,118Z" transform="translate(37.45 1.25)"/><path d="M6.48,123.71a5.1,5.1,0,0,1-1.13-.41,6.69,6.69,0,0,1-3.55-4.65,10.47,10.47,0,0,1,5.47-11.48,6.64,6.64,0,0,1,5.81-.14c3.64,1.74,4.85,6.8,2.71,11.27a10.25,10.25,0,0,1-4.65,4.83A6.82,6.82,0,0,1,6.48,123.71ZM2.77,112.05A9.87,9.87,0,0,0,2,118.61a6.52,6.52,0,0,0,3.44,4.53,6.41,6.41,0,0,0,5.64-.17,10,10,0,0,0,4.56-4.75c2.1-4.38.93-9.33-2.62-11a6.49,6.49,0,0,0-5.65.14,9.83,9.83,0,0,0-4.58,4.72Z" transform="translate(37.45 1.25)"/></g></g></svg>